<?xml version="1.0" encoding="UTF-8"?>
<svg width="189px" height="50px" viewBox="0 0 189 50" version="1.1" xmlns="http://www.w3.org/2000/svg" xmlns:xlink="http://www.w3.org/1999/xlink">
    <!-- Generator: Sketch 49.1 (51147) - http://www.bohemiancoding.com/sketch -->
    <title>logo</title>
    <desc>Created with Sketch.</desc>
    <defs></defs>
    <g id="Page-1" stroke="none" stroke-width="1" fill="none" fill-rule="evenodd">
        <path d="M181.0886,38.3240637 C181.0886,39.9560098 179.755303,41.2830333 178.11564,41.2830333 L157.084338,41.2830333 C155.444676,41.2830333 154.111378,39.9560098 154.111378,38.3240637 L154.111378,34.8178595 C154.111378,33.1859134 155.444676,31.8580768 157.084338,31.8580768 L178.11564,31.8580768 C179.755303,31.8580768 181.0886,33.1859134 181.0886,34.8178595 L181.0886,38.3240637 Z M178.11564,28.6055683 C181.556725,28.6055683 184.356487,31.3921549 184.356487,34.8178595 L184.356487,38.3240637 C184.356487,41.7489551 181.556725,44.5355418 178.11564,44.5355418 L157.084338,44.5355418 C153.643253,44.5355418 150.843491,41.7489551 150.843491,38.3240637 L150.843491,34.8178595 C150.843491,31.3921549 153.643253,28.6055683 157.084338,28.6055683 L178.11564,28.6055683 Z M94.9435918,18.5962173 C94.0882224,18.5962173 93.3692873,17.9343319 93.3145502,17.0732302 C93.3063805,16.9423168 93.1339995,13.8410499 95.1805136,11.2927095 C96.9492573,9.08750874 99.5349727,7.82228294 102.275096,7.82228294 L110.70461,7.82228294 L110.70461,7.04981217 C110.70461,6.1513067 111.435799,5.42355792 112.338553,5.42355792 C113.24049,5.42355792 113.972497,6.1513067 113.972497,7.04981217 L113.972497,7.82228294 L122.141397,7.82228294 C125.871689,7.82228294 127.888792,9.49732481 129.369962,11.1341497 C131.314355,13.2856841 131.370726,16.5991771 131.370726,16.9699631 C131.370726,17.8676554 130.638719,18.5962173 129.736782,18.5962173 C128.834029,18.5962173 128.102839,17.8676554 128.102839,16.9699631 C128.097937,16.3088907 127.880623,14.3492544 126.940288,13.3100779 C125.660911,11.8944236 124.465681,11.0747914 122.141397,11.0747914 L102.275096,11.0747914 C99.8928063,11.0747914 98.4067348,12.4823145 97.7335501,13.3222748 C96.4868513,14.8753476 96.5742673,16.847994 96.5759012,16.8666959 C96.6322723,17.7635752 95.948467,18.5360459 95.0489811,18.5929648 C95.0130344,18.5954042 94.9779046,18.5962173 94.9435918,18.5962173 Z M130.220185,41.3232831 C131.122121,41.3232831 131.854128,42.051845 131.854128,42.9495373 C131.854128,43.8472297 131.122121,44.5757916 130.220185,44.5757916 L94.4580655,44.5757916 C93.5553118,44.5757916 92.8241221,43.8472297 92.8241221,42.9495373 C92.8241221,42.051845 93.5553118,41.3232831 94.4580655,41.3232831 L110.704365,41.3232831 L110.704365,31.8991397 L98.6246212,31.8991397 C97.7226844,31.8991397 96.9906778,31.1713909 96.9906778,30.2728855 C96.9906778,29.3751931 97.7226844,28.6466312 98.6246212,28.6466312 L124.420502,28.6466312 C125.323256,28.6466312 126.054446,29.3751931 126.054446,30.2728855 C126.054446,31.1713909 125.323256,31.8991397 124.420502,31.8991397 L113.972251,31.8991397 L113.972251,41.3232831 L130.220185,41.3232831 Z M129.025037,22.1631621 C129.886942,21.8956433 130.80195,22.3753883 131.070734,23.2316111 C131.338701,24.0894602 130.858321,25.0009758 129.996416,25.2676814 C129.084676,25.5506497 128.15823,25.6896944 127.244038,25.6896944 C125.364187,25.6896944 123.532536,25.1018035 121.977839,23.9634255 C119.628228,22.2420354 118.280225,19.5286302 118.280225,16.5192467 C118.280225,15.6207412 119.011415,14.8929925 119.914168,14.8929925 C120.816105,14.8929925 121.548112,15.6207412 121.548112,16.5192467 C121.548112,18.4837619 122.410834,20.2425558 123.914879,21.3435299 C125.379709,22.4168578 127.241587,22.7152754 129.025037,22.1631621 Z M103.12924,16.5189215 C103.12924,15.6212291 103.861246,14.8926672 104.763183,14.8926672 C105.66512,14.8926672 106.397126,15.6212291 106.397126,16.5189215 C106.397126,19.528305 105.04994,22.2417102 102.699513,23.9631003 C101.144815,25.1022914 99.3131649,25.6893692 97.433313,25.6893692 C96.5183047,25.6893692 95.5926758,25.5503244 94.6809354,25.2681693 C93.8190302,25.0014636 93.3386509,24.0899481 93.6066176,23.232099 C93.8754013,22.375063 94.7895926,21.8912524 95.6531317,22.1628368 C97.434947,22.7149502 99.2976424,22.4173456 100.76329,21.3440178 C102.266518,20.2422306 103.12924,18.4834366 103.12924,16.5189215 Z M171.653558,8.709242 C170.755706,8.61898489 170.101312,7.82130718 170.191995,6.9284936 C170.281045,6.03405376 171.084945,5.38680457 171.980346,5.47299605 C178.401744,6.1161796 184.286391,9.46545023 188.125341,14.6621457 C188.659641,15.3858288 188.503599,16.403864 187.776494,16.9356491 C187.485652,17.1495016 187.146609,17.2519556 186.810017,17.2519556 C186.307579,17.2519556 185.812494,17.0226537 185.492241,16.5884438 C182.199845,12.1316941 177.155862,9.26054219 171.653558,8.709242 Z M167.702764,13.1464767 C176.365115,13.1464767 184.19007,17.9219723 188.123789,25.608463 C188.533092,26.4093932 188.212839,27.3892114 187.408939,27.7965881 C186.605855,28.2039648 185.621405,27.8860321 185.212102,27.085915 C181.838826,20.4938934 175.129854,16.3989852 167.702764,16.3989852 C160.208683,16.3989852 153.261973,20.7427103 150.004706,27.4648323 C149.722851,28.0462181 149.139533,28.384479 148.531706,28.384479 C148.293968,28.384479 148.052144,28.333252 147.823392,28.2234799 C147.010505,27.8331788 146.669828,26.8606788 147.061157,26.0516173 C150.860076,18.2114456 158.961984,13.1464767 167.702764,13.1464767 Z M147.424465,16.9358117 C146.696543,16.4040266 146.541318,15.3859914 147.075618,14.6623083 C150.914568,9.46479973 156.799215,6.1155291 163.219796,5.47234555 C164.120098,5.38859345 164.919097,6.03421639 165.008964,6.9278431 C165.099647,7.82146981 164.445253,8.61833439 163.546584,8.70940463 C158.04428,9.26070482 153.000297,12.1318567 149.708718,16.5886065 C149.387648,17.0220032 148.892563,17.2521182 148.390942,17.2521182 C148.05435,17.2521182 147.715307,17.1496642 147.424465,16.9358117 Z M33.5071568,27.9488055 C33.6403232,27.7268218 33.7947308,27.6268072 34.0079604,27.6243678 C34.2783781,27.5967215 34.5283714,27.7658519 34.6590869,27.9748256 C35.4458306,29.2343595 36.8902366,31.5086761 38.0168405,33.2788538 L30.124894,33.2788538 C31.796418,30.663837 33.2383731,28.3984648 33.5071568,27.9488055 M66.4834024,46.7474915 L13.0510025,46.7474915 C17.1840623,40.2953278 28.1829522,23.1172041 32.5586526,16.2430274 C32.9900137,15.5656925 33.6582965,15.4640516 34.0177641,15.4640516 L34.0185811,15.4640516 C34.656636,15.4640516 35.262829,15.7689743 35.5626576,16.2422143 C38.3746741,20.666439 43.7699552,29.0855572 46.4586091,33.2788538 L41.8852015,33.2788538 C40.8754245,31.6940691 38.52418,28.0016588 37.4343397,26.2575011 C36.7064179,25.0914768 35.3984463,24.3718593 34.0153132,24.3718593 L33.9769155,24.3718593 C32.6133897,24.3848693 31.4189771,25.0825324 30.6992251,26.2851474 C30.383057,26.8136801 28.1829522,30.2613391 25.8308907,33.9342343 C25.7875912,33.9927794 25.7500105,34.053764 25.7148807,34.1171879 C24.1822418,36.510221 22.5973167,38.9805012 21.4380339,40.7872697 C21.1161471,41.288156 21.0949058,41.9240214 21.3816629,42.4444228 C21.6676029,42.9656372 22.2174249,43.2892618 22.8146312,43.2892618 L62.1616221,43.2892618 C62.7571944,43.2892618 63.3053825,42.9672635 63.5929565,42.4476753 C63.8797136,41.928087 63.8609232,41.294661 63.5423042,40.7937747 C63.3699232,40.5221902 46.1800217,13.4727033 39.2782448,2.77195037 C38.1573597,1.03511083 36.2088822,0 34.0618806,0 L34.0439072,0 C31.9042583,0.00569188987 29.9435262,1.07983282 28.8005828,2.87277813 C21.8309973,13.8077117 0.471272268,47.1646257 0.256408711,47.4996341 C-0.228872477,48.2574686 -0.00502223162,49.2624937 0.75639539,49.7454912 C1.02844697,49.9178742 1.33236044,50 1.63218905,50 C2.17220734,50 2.70078803,49.7341074 3.01205425,49.2478574 C3.2269178,48.9120359 24.5882768,15.5534956 31.5603132,4.61530956 C32.1109521,3.75176855 33.0186077,3.25494788 34.0528939,3.2525085 L34.0618806,3.2525085 C35.0904479,3.2525085 36.011992,3.72981412 36.5283181,4.52911808 C42.1833962,13.2962547 54.7574076,33.0593095 59.1935639,40.0367533 L25.7965779,40.0367533 C26.4419855,39.0309151 27.2254614,37.8079719 28.044067,36.5313623 L49.4397388,36.5313623 C50.0361282,36.5313623 50.5859501,36.2069246 50.8727072,35.6865232 C51.1594642,35.1653087 51.138223,34.5302565 50.8163361,34.0301833 C50.8163361,34.0301833 42.1629719,20.5428437 38.3248389,14.5029354 C37.42617,13.0905336 35.7767042,12.2115432 34.019398,12.2115432 L34.0177641,12.2115432 C32.288235,12.2115432 30.7106627,13.067766 29.7981053,14.5021223 C24.3889357,23.0001138 8.85013399,47.255696 8.6940924,47.4996341 C8.37302252,47.9997073 8.35178126,48.6347596 8.63935529,49.155974 C8.92611236,49.6763754 9.47511734,50 10.0715067,50 L66.4834024,50 C67.3853391,50 68.1173457,49.2722512 68.1173457,48.3737458 C68.1173457,47.4760534 67.3853391,46.7474915 66.4834024,46.7474915" id="logo" fill="#000000"></path>
    </g>
</svg>