<?xml version="1.0" encoding="UTF-8"?>
<svg width="120px" height="25px" viewBox="0 0 120 25" version="1.1" xmlns="http://www.w3.org/2000/svg" xmlns:xlink="http://www.w3.org/1999/xlink">
    <!-- Generator: Sketch 49.1 (51147) - http://www.bohemiancoding.com/sketch -->
    <title>Fill 25</title>
    <desc>Created with Sketch.</desc>
    <defs></defs>
    <g id="Page-1" stroke="none" stroke-width="1" fill="none" fill-rule="evenodd">
        <path d="M50.4760468,8.75272303 C50.4760468,9.6623444 50.0739015,10.4773081 49.3719515,10.9869035 C48.6890262,11.4841805 47.819789,11.622277 46.9892575,11.3668309 C46.5864562,11.2410529 46.160038,11.4653786 46.0347366,11.8615145 C45.9094352,12.2589471 46.1337969,12.6810166 46.5359421,12.8048496 C46.9610483,12.935166 47.3927147,13 47.819133,13 C48.6962426,13 49.5503911,12.7276971 50.2753022,12.1999481 C51.3715251,11.403138 52,10.1460062 52,8.75272303 C52,8.33648859 51.6588654,8 51.2383514,8 C50.8171814,8 50.4760468,8.33648859 50.4760468,8.75272303 M14.8605673,16.7053472 C15.6848939,15.4088194 16.3968122,14.2852083 16.5293429,14.0615972 C16.5952612,13.9511806 16.6708939,13.901875 16.7763633,13.9004861 C16.9095878,13.9102083 17.033098,13.970625 17.0976286,14.0747917 C17.4855061,14.6990972 18.1981184,15.8275694 18.7532204,16.7053472 L14.8605673,16.7053472 Z M32.7966082,23.3865972 C33.2413837,23.3865972 33.6022,23.7484028 33.6022,24.1928472 C33.6022,24.6386806 33.2413837,24.9997917 32.7966082,24.9997917 L4.96864898,24.9997917 C4.67375102,24.9997917 4.40313878,24.839375 4.26158776,24.5817361 C4.12003673,24.3234028 4.1304449,24.008125 4.28864898,23.7595139 C4.36566939,23.6386806 12.0309347,11.6067361 14.6995878,7.39145833 C15.1499143,6.67965278 15.927751,6.25534722 16.7812204,6.25534722 L16.7819143,6.25534722 C17.6492612,6.25534722 18.4624857,6.69145833 18.9058735,7.39215278 C20.7994653,10.3879861 25.0675061,17.0782639 25.0675061,17.0782639 C25.2264041,17.326875 25.2368122,17.6414583 25.0952612,17.8997917 C24.9537102,18.158125 24.683098,18.3185417 24.3882,18.3185417 L13.8343224,18.3185417 C13.4304857,18.9525694 13.043302,19.5588194 12.7255061,20.058125 L29.2002408,20.058125 C27.011751,16.5970139 20.8091796,6.79423611 18.0197918,2.44493056 C17.7651388,2.04840278 17.3099551,1.81159722 16.8027306,1.81159722 L16.7978735,1.81159722 C16.2885673,1.81298611 15.8403224,2.05881944 15.5690163,2.48729167 C12.1294653,7.91298611 1.59154694,24.4602083 1.48607755,24.626875 C1.33203673,24.8678472 1.07113878,24.9997917 0.805383673,24.9997917 C0.656893878,24.9997917 0.507016327,24.9595139 0.373097959,24.8740972 C-0.00228979592,24.6338194 -0.113310204,24.1352083 0.126771429,23.7595139 C0.232240816,23.5935417 10.7694653,7.04770833 14.2076286,1.62270833 C14.7710571,0.733819444 15.7383224,0.200486111 16.7937102,0.197708333 L16.8027306,0.197708333 C17.8622816,0.197708333 18.823302,0.711597222 19.3763224,1.57340278 C22.7811796,6.88173611 31.2603633,20.2984028 31.3457102,20.433125 C31.5025265,20.6824306 31.5122408,20.9963194 31.3699959,21.2539583 C31.2284449,21.5115972 30.9578327,21.6713194 30.6643224,21.6713194 L11.2544857,21.6713194 C10.9595878,21.6713194 10.6889755,21.5109028 10.5474245,21.2525694 C10.4058735,20.9942361 10.4169755,20.6789583 10.5751796,20.4296528 C11.1476286,19.5338194 11.9289347,18.3088194 12.6852612,17.1213194 C12.7026082,17.0900694 12.7213429,17.0595139 12.7428531,17.0310417 C13.9030163,15.2088194 14.9882408,13.4990972 15.1436694,13.2365972 C15.4989347,12.6400694 16.0880367,12.2935417 16.7604041,12.2872917 C17.4556694,12.2845139 18.103751,12.639375 18.466649,13.2227083 C19.0037102,14.0879861 20.1638735,15.9199306 20.6620776,16.7053472 L22.9178735,16.7053472 C21.5918735,14.6261806 18.9301592,10.4490972 17.543098,8.25465278 C17.395302,8.01993056 17.0962408,7.86854167 16.7819143,7.86854167 L16.7812204,7.86854167 C16.6035878,7.86854167 16.2739959,7.91923611 16.0609755,8.25534722 C13.9030163,11.6650694 8.47689388,20.1859028 6.43828163,23.3865972 L32.7966082,23.3865972 Z M118.843793,20.7554087 C119.285862,20.7554087 119.645172,21.1171478 119.645172,21.5630609 C119.645172,22.0096696 119.285862,22.3714087 118.843793,22.3714087 L104.673448,22.3714087 C103.323103,22.3714087 102.243793,21.9581913 101.466552,21.1435826 C100.221724,19.8378435 100.277586,17.9874087 100.280345,17.9094957 L100.279655,8.29906087 C100.279655,7.85245217 100.638966,7.49071304 101.081034,7.49071304 C101.523103,7.49071304 101.881724,7.85245217 101.881724,8.29906087 L101.881724,17.9408 C101.881034,17.9804522 101.856207,19.2298435 102.62931,20.0312348 C103.092759,20.5112348 103.780345,20.7554087 104.673448,20.7554087 L118.843793,20.7554087 Z M46.86355,9.99482795 C46.4078744,10.0339878 46.0322405,9.66677222 46.0034536,9.19611569 C45.9992409,9.12666244 45.9128802,7.49007811 46.9351662,6.14460629 C47.8177305,4.98163395 49.1089283,4.31370065 50.4759551,4.31370065 L54.6844596,4.31370065 L54.6844596,3.85856027 C54.6837575,3.38494828 55.0488597,3.00073886 55.4989183,3 L55.4996204,3 C55.9496791,3 56.3147812,3.38420942 56.3154833,3.85782141 L56.3154833,4.31370065 L60.3926915,4.31370065 C62.2547126,4.31370065 63.261552,5.19738231 64.0008839,6.06185349 C64.9719152,7.196749 65,8.9456407 65,9.14143973 C65,9.61505172 64.6341957,10 64.1841371,10 C63.7333763,10 63.3682742,9.61505172 63.3682742,9.14143973 C63.3661678,8.79195693 63.2580414,7.7590247 62.7883234,7.20930969 C62.1493946,6.46305679 61.552593,6.03008233 60.3926915,6.03008233 L55.5003225,6.03008233 L50.4759551,6.03008233 C49.2872667,6.03008233 48.5458285,6.77337978 48.2095132,7.21595947 C47.5895416,8.03240448 47.6316688,9.08233059 47.6316688,9.09267469 C47.6541366,9.56407009 47.3108002,9.9689677 46.86355,9.99482795 Z M64.2043391,20.3473544 C64.6439383,20.3473544 65,20.7172966 65,21.1733215 C65,21.6300578 64.6439383,22 64.2043391,22 L46.7956609,22 C46.3560617,22 46,21.6300578 46,21.1733215 C46,20.7172966 46.3560617,20.3473544 46.7956609,20.3473544 L54.7043391,20.3473544 L54.7036543,15.6526456 L50.2378189,15.6526456 C49.7982197,15.6526456 49.442158,15.2827034 49.442158,14.8259671 C49.442158,14.3699422 49.7982197,14 50.2378189,14 L60.7621811,14 C61.2010956,14 61.5571573,14.3699422 61.5571573,14.8259671 C61.5571573,15.2827034 61.2010956,15.6526456 60.7621811,15.6526456 L56.2949762,15.6526456 L56.2949762,20.3473544 L64.2043391,20.3473544 Z M82.5520636,7 C86.9453402,7 90.9141284,9.50693615 92.9095806,13.5418466 C93.1171875,13.9629766 92.9552398,14.4767111 92.5471602,14.6905834 C92.139794,14.9044557 91.6403959,14.7376206 91.432789,14.3172255 C89.7212803,10.857051 86.3189522,8.70730363 82.5520636,8.70730363 C78.7509305,8.70730363 75.22732,10.9878732 73.5750257,14.5171337 C73.4323405,14.8221406 73.1362688,15 72.8287822,15 C72.7074998,15 72.5847906,14.9728066 72.4692156,14.91548 C72.0568554,14.7096922 71.8834929,14.1996325 72.0825387,13.7748277 C74.0087886,9.65907212 78.1188351,7 82.5520636,7 Z M72.3284774,8.83826568 C71.9700207,8.56752099 71.89306,8.05025614 72.1565291,7.68190088 C74.0486532,5.03644031 76.9488933,3.33146128 80.1139891,3.0044302 C80.5563399,2.95740612 80.9515435,3.29013709 80.9959173,3.74541565 C81.040291,4.19998173 80.717888,4.60609876 80.2755373,4.65169786 C77.5631923,4.93241735 75.076876,6.39372616 73.4544611,8.66228163 C73.2963796,8.88243981 73.052324,9 72.8048017,9 C72.6390936,9 72.4719987,8.94727604 72.3284774,8.83826568 Z M84.8860109,3.00455831 C88.0504134,3.33162127 90.9513468,5.0367665 92.8434709,7.68177239 C93.10694,8.05016356 93.0299793,8.56819139 92.6715226,8.83896246 C92.5280013,8.94798345 92.3609064,9 92.1951983,9 C91.947676,9 91.7036204,8.8831409 91.5455389,8.66224871 C89.923124,6.39418466 87.4368077,4.93202084 84.7244627,4.65198655 C84.282112,4.60567044 83.959709,4.20022638 84.0040827,3.74490344 C84.0484565,3.2895805 84.4429668,2.95681709 84.8860109,3.00455831 Z M89.3424554,18.5707116 C89.3424554,19.5429288 88.5547114,20.3344685 87.5871563,20.3344685 L77.4128437,20.3344685 C76.444575,20.3344685 75.6575446,19.5429288 75.6575446,18.5707116 L75.6575446,17.4292884 C75.6575446,16.4570712 76.444575,15.6655315 77.4128437,15.6655315 L87.5871563,15.6655315 C88.5547114,15.6655315 89.3424554,16.4570712 89.3424554,17.4292884 L89.3424554,18.5707116 Z M87.5871563,14 C89.4687513,14 91,15.538627 91,17.4292884 L91,18.5707116 C91,20.46209 89.4687513,22 87.5871563,22 L77.4128437,22 C75.5312487,22 74,20.46209 74,18.5707116 L74,17.4292884 C74,15.538627 75.5312487,14 77.4128437,14 L87.5871563,14 Z M101,6 C100.447504,6 100,5.61502463 100,5.14137931 L100,3.85935961 C100,3.38497537 100.447504,3 101,3 C101.552496,3 102,3.38497537 102,3.85935961 L102,5.14137931 C102,5.61502463 101.552496,6 101,6 Z M103.818536,5.81940446 C103.366453,5.81940446 103.00028,5.46190865 103.00028,5.02122631 C103.00028,4.57985649 103.366453,4.22236068 103.818536,4.22236068 L106.792989,4.22236068 L106.792989,3.79955313 C106.792989,3.3581833 107.159162,3 107.610541,3 C108.06192,3 108.428797,3.3581833 108.428797,3.79955313 L108.428797,4.22236068 L113.939704,4.22236068 L113.939704,3.79955313 C113.939704,3.3581833 114.305877,3 114.757256,3 C115.208635,3 115.575512,3.3581833 115.575512,3.79955313 L115.575512,4.22236068 L118.18168,4.22236068 C118.633763,4.22236068 118.999936,4.57985649 118.999936,5.02122631 C118.999936,5.46190865 118.633763,5.81940446 118.18168,5.81940446 L111.851812,5.81940446 L111.851812,7.40751085 L116.174065,7.42813561 C116.267016,7.42951059 117.311314,7.42332316 118.124641,8.19743909 C118.705589,8.75018262 118.999936,9.52704851 118.999936,10.5046621 L118.999936,12.6406995 C119.001344,12.7850728 118.987965,14.1428694 118.063377,15.0551712 C117.556368,15.5549779 116.866273,15.8196623 116.069142,15.8196623 L107.866862,15.8196623 C107.769685,15.8031625 106.953542,15.8059124 106.369777,15.2380441 C106.124019,15.0001719 105.831784,14.5732394 105.831784,13.8974348 L105.831784,12.7018863 C105.836009,11.9250204 106.409915,10.7741589 107.974602,10.7741589 L113.751688,10.7741589 C114.203771,10.7741589 114.569944,11.1323422 114.569944,11.5730245 C114.569944,12.0143944 114.203771,12.3712027 113.751688,12.3712027 L107.974602,12.3712027 C107.816865,12.3712027 107.489422,12.3712027 107.467593,12.725261 L107.467593,13.8974348 C107.467593,14.0521205 107.510548,14.09337 107.523927,14.1071198 C107.611245,14.1916813 107.825316,14.2226185 107.863341,14.2226185 L116.069142,14.2226185 C116.285325,14.2226185 117.360607,14.1463069 117.363423,12.6448245 L117.363423,10.5046621 C117.363423,9.97323078 117.235263,9.58136037 116.982462,9.3400507 C116.661357,9.03480428 116.200823,9.0244919 116.190965,9.0244919 L105.943045,8.97567997 C105.561379,8.98461737 104.645242,9.13930306 104.645242,10.4001633 L104.645242,15.971598 C104.645242,16.0018476 104.64313,16.0320973 104.640313,16.0623469 C104.623413,16.2321574 104.641017,16.7608387 104.931843,17.0736476 C105.134647,17.2915825 105.476174,17.4029562 105.946565,17.4029562 L118.18168,17.4029562 C118.633763,17.4029562 118.999936,17.7597645 118.999936,18.2011344 C118.999936,18.6418167 118.633763,19 118.18168,19 L105.946565,19 C104.750165,19 104.067111,18.5270055 103.705163,18.1303227 C102.949579,17.3025824 102.985492,16.2122202 103.009434,15.9337859 L103.009434,10.4001633 C103.009434,8.18300176 104.765657,7.37863619 105.946565,7.37863619 L110.2153,7.39926095 L110.2153,5.81940446 L103.818536,5.81940446 Z M64.0111011,11.3668309 C64.4138784,11.2429979 64.8402714,11.4647303 64.9655653,11.8615145 C65.0902032,12.2589471 64.8658549,12.6803683 64.4643896,12.8048496 C64.0393086,12.935166 63.6070118,13 63.1806188,13 C62.3035613,13 61.4494635,12.7276971 60.7245955,12.1999481 C59.6284376,11.403138 59,10.1460062 59,8.75272303 C59,8.33648859 59.3411144,8 59.7622594,8 C60.1827484,8 60.5245188,8.33648859 60.5245188,8.75272303 C60.5245188,9.6623444 60.9266401,10.4773081 61.6278925,10.9869035 C62.3107772,11.4835322 63.1799628,11.622277 64.0111011,11.3668309 Z" id="Fill-25" fill="#111111"></path>
    </g>
</svg>