<?xml version="1.0" encoding="UTF-8"?>
<svg width="47px" height="48px" viewBox="0 0 47 48" version="1.1" xmlns="http://www.w3.org/2000/svg" xmlns:xlink="http://www.w3.org/1999/xlink">
    <!-- Generator: Sketch 49.1 (51147) - http://www.bohemiancoding.com/sketch -->
    <title>10</title>
    <desc>Created with Sketch.</desc>
    <defs></defs>
    <g id="Page-1" stroke="none" stroke-width="1" fill="none" fill-rule="evenodd">
        <path d="M7.99176819,8.90355773 L7.99176819,43.648789 C7.99176819,44.6319468 8.76680095,45.4023201 9.75617143,45.4023201 L36.8551376,45.4023201 C37.7963598,45.4023201 38.6203174,44.5822453 38.6203174,43.648789 L38.6203174,8.90355773 L7.99176819,8.90355773 Z M14.4168519,37.9747415 C13.6985099,37.9747415 13.1176236,37.3938553 13.1176236,36.6755133 L13.1176236,17.6289667 C13.1176236,16.9106247 13.6985099,16.3297384 14.4168519,16.3297384 C15.1351939,16.3297384 15.7160802,16.9106247 15.7160802,17.6289667 L15.7160802,36.6755133 C15.7160802,37.3938553 15.1351939,37.9747415 14.4168519,37.9747415 M23.3398243,37.9747415 C22.6214823,37.9747415 22.040596,37.3938553 22.040596,36.6755133 L22.040596,17.6289667 C22.040596,16.9106247 22.6214823,16.3297384 23.3398243,16.3297384 C24.0581663,16.3297384 24.6390526,16.9106247 24.6390526,17.6289667 L24.6390526,36.6755133 C24.6390526,37.3938553 24.0581663,37.9747415 23.3398243,37.9747415 M32.1967869,37.9747415 C31.4784449,37.9747415 30.8975586,37.3938553 30.8975586,36.6755133 L30.8975586,17.6289667 C30.8975586,16.9106247 31.4784449,16.3297384 32.1967869,16.3297384 C32.9151289,16.3297384 33.4960151,16.9106247 33.4960151,17.6289667 L33.4960151,36.6755133 C33.4960151,37.3938553 32.9151289,37.9747415 32.1967869,37.9747415 M14.3851672,6.30432461 L32.2256759,6.30432461 C32.1689851,4.25025482 30.4752512,2.59767995 28.4009901,2.59767995 L18.2121827,2.59767995 C16.1371451,2.59767995 14.4426346,4.25025482 14.3851672,6.30432461 M34.8240378,6.30432461 L39.9195457,6.30432461 C39.9410731,6.30432461 39.9624771,6.30484632 39.9837457,6.30587778 L45.3122361,6.30587778 C46.0305781,6.30587778 46.6114643,6.88676406 46.6114643,7.60432947 C46.6114643,8.32267146 46.0305781,8.90355773 45.3122361,8.90355773 L41.218774,8.90355773 L41.218774,43.6486269 C41.218774,46.0072063 39.2206184,48 36.8551376,48 L9.75617143,48 C7.35108479,48 5.39408824,46.0475902 5.39408824,43.6486269 L5.39408824,8.90355773 L1.29922827,8.90355773 C0.580886279,8.90355773 0,8.32267146 0,7.60432947 C0,6.88676406 0.580886279,6.30587778 1.29922827,6.30587778 L6.6284077,6.30587778 C6.64965439,6.30484632 6.67103578,6.30432461 6.69253992,6.30432461 L11.7868058,6.30432461 C11.8439657,2.81817938 14.7050072,-3.55271368e-15 18.2121827,-3.55271368e-15 L28.4009901,-3.55271368e-15 C31.9073969,-3.55271368e-15 34.7669086,2.81817938 34.8240378,6.30432461 Z" id="10" fill="#000000"></path>
    </g>
</svg>