<?xml version="1.0" encoding="UTF-8"?>
<svg width="46px" height="10px" viewBox="0 0 46 10" version="1.1" xmlns="http://www.w3.org/2000/svg" xmlns:xlink="http://www.w3.org/1999/xlink">
    <!-- Generator: Sketch 49.1 (51147) - http://www.bohemiancoding.com/sketch -->
    <title>11</title>
    <desc>Created with Sketch.</desc>
    <defs></defs>
    <g id="Page-1" stroke="none" stroke-width="1" fill="none" fill-rule="evenodd">
        <path d="M41.1578947,9.68421053 C38.4836738,9.68421053 36.3157895,7.51632616 36.3157895,4.84210526 C36.3157895,2.16788437 38.4836738,0 41.1578947,0 C43.8321156,0 46,2.16788437 46,4.84210526 C46,7.51632616 43.8321156,9.68421053 41.1578947,9.68421053 Z M4.84210526,9.68421053 C2.16788437,9.68421053 0,7.51632616 0,4.84210526 C0,2.16788437 2.16788437,0 4.84210526,0 C7.51632616,0 9.68421053,2.16788437 9.68421053,4.84210526 C9.68421053,7.51632616 7.51632616,9.68421053 4.84210526,9.68421053 Z M23,9.68421053 C20.3257791,9.68421053 18.1578947,7.51632616 18.1578947,4.84210526 C18.1578947,2.16788437 20.3257791,0 23,0 C25.6742209,0 27.8421053,2.16788437 27.8421053,4.84210526 C27.8421053,7.51632616 25.6742209,9.68421053 23,9.68421053 Z" id="11" fill="#000000"></path>
    </g>
</svg>