<?xml version="1.0" encoding="UTF-8"?>
<svg width="50px" height="48px" viewBox="0 0 50 48" version="1.1" xmlns="http://www.w3.org/2000/svg" xmlns:xlink="http://www.w3.org/1999/xlink">
    <!-- Generator: Sketch 49.1 (51147) - http://www.bohemiancoding.com/sketch -->
    <title>12</title>
    <desc>Created with Sketch.</desc>
    <defs></defs>
    <g id="Page-1" stroke="none" stroke-width="1" fill="none" fill-rule="evenodd">
        <path d="M25.2241727,27.2496194 L4.89240872,46.7994576 C4.53994924,47.1373827 4.08574887,47.3063452 3.63336531,47.3063452 C3.15554653,47.3063452 2.68136135,47.1192147 2.32345147,46.7485872 C1.62761651,46.0255002 1.65123493,44.8754649 2.37432191,44.1796299 L22.6250856,24.7076768 L0.546074608,3.11410337 C-0.169745164,2.41281801 -0.184279575,1.26278269 0.517005785,0.54514612 C1.22010795,-0.170673651 2.37014326,-0.183391261 3.08596304,0.517894098 L25.2448316,22.1886819 L45.9775567,2.25330284 C46.7024605,1.55746789 47.8524958,1.58108631 48.546514,2.30235648 C49.2423489,3.02726026 49.2187305,4.17729558 48.4956435,4.87313053 L27.8439724,24.7305728 L48.4514952,44.8841855 C49.1691318,45.5854709 49.1836662,46.7355062 48.4805641,47.4531428 C48.1262878,47.8165031 47.6539194,48 47.181551,48 C46.7237171,48 46.2640663,47.8274039 45.9116068,47.4822116 L25.2241727,27.2496194 Z" id="12" fill="#333434"></path>
    </g>
</svg>