<?xml version="1.0" encoding="UTF-8"?>
<svg width="35px" height="48px" viewBox="0 0 35 48" version="1.1" xmlns="http://www.w3.org/2000/svg" xmlns:xlink="http://www.w3.org/1999/xlink">
    <!-- Generator: Sketch 49.1 (51147) - http://www.bohemiancoding.com/sketch -->
    <title>14</title>
    <desc>Created with Sketch.</desc>
    <defs></defs>
    <g id="Page-1" stroke="none" stroke-width="1" fill="none" fill-rule="evenodd">
        <path d="M0.000192,14.259303 C6.41542505e-05,14.2509212 0,14.2425241 0,14.234112 C0,14.2256999 6.41542505e-05,14.2173028 0.000192,14.208921 L0.000192,12.613632 L8.2464,12.613632 L8.2464,15.854592 L0.000192,15.854592 L0.000192,14.259303 Z M21.2064,10.810368 C20.78976,10.810368 20.37312,10.651008 20.05632,10.332288 C19.42656,9.696768 19.4304,8.671488 20.064,8.041728 L21.2064,9.189888 L20.06592,8.041728 L20.07552,8.030208 L23.6064,4.528128 C24.24384,3.898368 25.26912,3.907968 25.89504,4.539648 C26.5248,5.175168 26.52096,6.202368 25.88736,6.830208 L22.3488,10.339968 C22.032,10.654848 21.6192,10.810368 21.2064,10.810368 Z M15.755904,8.20608 C14.861184,8.20608 14.135424,7.48032 14.135424,6.5856 L14.135424,1.61856 C14.135424,0.72576 14.861184,0 15.755904,0 C16.650624,0 17.376384,0.72576 17.376384,1.61856 L17.376384,6.5856 C17.376384,7.48032 16.650624,8.20608 15.755904,8.20608 Z M9.037632,10.341696 L5.497152,6.831936 C4.861632,6.202176 4.855872,5.176896 5.485632,4.541376 C6.115392,3.905856 7.136832,3.900096 7.776192,4.527936 L11.128512,7.851456 C11.556672,8.141376 11.835072,8.632896 11.835072,9.189696 C11.835072,10.084416 11.111232,10.810176 10.214592,10.810176 L10.178112,10.810176 C9.765312,10.810176 9.354432,10.654656 9.037632,10.341696 Z M23.135808,14.234112 C23.135808,13.339392 23.861568,12.613632 24.756288,12.613632 L29.763648,12.613632 C30.658368,12.613632 31.384128,13.339392 31.384128,14.234112 C31.384128,15.128832 30.658368,15.854592 29.763648,15.854592 L24.756288,15.854592 C23.861568,15.854592 23.135808,15.128832 23.135808,14.234112 Z M34.536384,32.070144 L34.536384,45.414144 L34.507584,45.417984 C34.507584,45.433344 34.507584,45.448704 34.507584,45.465984 C34.507584,46.573824 33.605184,47.470464 32.487744,47.470464 L14.403264,47.470464 C13.781184,47.470464 13.226304,47.190144 12.855744,46.754304 L4.974144,37.912704 C3.971904,36.921984 3.971904,35.313024 4.974144,34.322304 L5.173824,34.120704 C6.176064,33.128064 7.794624,33.128064 8.794944,34.120704 L12.999744,38.290944 L12.999744,15.821184 C12.999744,14.417664 14.144064,13.279104 15.559104,13.279104 L15.847104,13.279104 C17.258304,13.279104 18.406464,14.417664 18.406464,15.821184 L18.406464,26.177664 C18.594624,24.960384 19.654464,24.029184 20.935104,24.029184 L21.223104,24.029184 C22.636224,24.029184 23.780544,25.165824 23.780544,26.565504 L23.780544,28.971264 C23.972544,27.753984 25.032384,26.822784 26.313024,26.822784 L26.599104,26.822784 C28.014144,26.822784 29.160384,27.957504 29.160384,29.362944 L29.160384,31.682304 C29.348544,30.465024 30.408384,29.529984 31.690944,29.529984 L31.977024,29.529984 C33.390144,29.529984 34.536384,30.666624 34.536384,32.070144 Z" id="14" fill="#231916"></path>
    </g>
</svg>