<?xml version="1.0" encoding="UTF-8"?>
<svg width="48px" height="41px" viewBox="0 0 48 41" version="1.1" xmlns="http://www.w3.org/2000/svg" xmlns:xlink="http://www.w3.org/1999/xlink">
    <!-- Generator: Sketch 49.1 (51147) - http://www.bohemiancoding.com/sketch -->
    <title>15</title>
    <desc>Created with Sketch.</desc>
    <defs></defs>
    <g id="Page-1" stroke="none" stroke-width="1" fill="none" fill-rule="evenodd">
        <path d="M29.7539286,5.33388978 L29.7539286,12.3418898 C29.7539286,13.0880716 29.2499286,13.7404352 28.525565,13.9258898 C16.3553832,17.0502534 8.54011046,23.5324352 4.78520137,33.6647989 C13.1219286,26.7026171 21.0397468,23.6655261 28.3292014,24.6211625 C29.1452014,24.7280716 29.7539286,25.4240716 29.7539286,26.2444352 L29.7539286,33.0887989 L43.8113832,18.1062534 L29.7539286,5.33388978 Z M1.63465591,40.3629807 C1.36411046,40.3629807 1.093565,40.2975261 0.847019548,40.1600716 C0.214292275,39.8131625 -0.112980452,39.0931625 0.035383184,38.3884352 C3.00047409,24.3746171 11.8957468,15.195708 26.4812014,11.0873443 L26.4812014,1.63570796 C26.4812014,0.987707963 26.8630195,0.400798872 27.4542923,0.13898069 C28.0477468,-0.120655673 28.7393832,-0.0115647644 29.2172014,0.424798872 L47.2433832,16.803708 C47.5684741,17.0982534 47.7604741,17.5127989 47.7779286,17.9491625 C47.797565,18.387708 47.6361105,18.8153443 47.3372014,19.1338898 L29.3110195,38.3426171 C28.8506559,38.8335261 28.1393832,38.9927989 27.5153832,38.7440716 C26.8913832,38.4975261 26.4812014,37.8953443 26.4812014,37.2233443 L26.4812014,27.7411625 C19.2986559,27.3811625 11.3764741,31.4938898 2.78011046,39.8960716 C2.46592864,40.203708 2.053565,40.3629807 1.63465591,40.3629807 Z" id="15" fill="#050000"></path>
    </g>
</svg>