<?xml version="1.0" encoding="UTF-8"?>
<svg width="55px" height="48px" viewBox="0 0 55 48" version="1.1" xmlns="http://www.w3.org/2000/svg" xmlns:xlink="http://www.w3.org/1999/xlink">
    <!-- Generator: Sketch 49.1 (51147) - http://www.bohemiancoding.com/sketch -->
    <title>16</title>
    <desc>Created with Sketch.</desc>
    <defs></defs>
    <g id="Page-1" stroke="none" stroke-width="1" fill="none" fill-rule="evenodd">
        <path d="M27.1986753,48 C26.833869,48 26.4690628,47.8762645 26.170391,47.6266603 C23.9815536,45.7940956 21.572979,44.0809996 19.0214687,42.2655019 C11.3904048,36.8403424 3.49906971,31.2295797 0.783289906,21.7915515 C-0.673801696,16.6970643 -0.0849916197,11.5812434 2.44091827,7.38063821 C4.6318891,3.73897589 8.0132803,1.20026578 11.7168103,0.413052309 C17.8630489,-0.864836226 23.0066035,0.843993017 27.1261407,5.48193905 C31.2499446,0.854659867 36.5172348,-0.871236335 42.6698734,0.410918939 C46.3819369,1.20026578 49.7633281,3.73897589 51.9521656,7.38063821 C54.4802088,11.5812434 55.0668855,16.6970643 53.6119273,21.7894181 C50.8940141,31.2274463 43.0069458,36.838209 35.3780153,42.2655019 C32.8265049,44.0788662 30.415797,45.7919622 28.2248262,47.6266603 C27.9304211,47.8741312 27.5634815,48 27.1986753,48 M15.5440758,3.19923332 C14.541392,3.19923332 13.4768405,3.31443529 12.378155,3.54483924 C9.5834405,4.13791605 6.89112776,6.18808447 5.18443189,9.0297331 C3.11932988,12.4601918 2.64998852,16.6799974 3.85747585,20.9104697 C6.26391703,29.2690128 13.6923108,34.5512365 20.8753671,39.6585239 C22.9980701,41.1668164 25.1847742,42.7199096 27.1986753,44.3327372 C29.2125764,42.7199096 31.3992805,41.1668164 33.5219835,39.6563905 C40.7029064,34.5491031 48.1291668,29.2690128 50.535608,20.906203 C51.7452287,16.6799974 51.2758873,12.4623252 49.2107853,9.0297331 C47.5019561,6.18808447 44.8096433,4.13791605 42.0106621,3.54483924 C36.4489669,2.3800193 31.9859572,4.13791605 28.4125627,8.97426548 C27.8109524,9.78921276 26.441329,9.79134613 25.8397187,8.97426548 C22.9660695,5.08726563 19.5974785,3.19923332 15.5440758,3.19923332" id="16" fill="#000000"></path>
    </g>
</svg>