<?xml version="1.0" encoding="UTF-8"?>
<svg width="37px" height="48px" viewBox="0 0 37 48" version="1.1" xmlns="http://www.w3.org/2000/svg" xmlns:xlink="http://www.w3.org/1999/xlink">
    <!-- Generator: Sketch 49.1 (51147) - http://www.bohemiancoding.com/sketch -->
    <title>17</title>
    <desc>Created with Sketch.</desc>
    <defs></defs>
    <g id="Page-1" stroke="none" stroke-width="1" fill="none" fill-rule="evenodd">
        <path d="M30.9241212,4.10715152 L5.86133333,4.10715152 C5.05115152,4.11636364 4.10715152,4.1270303 4.10715152,6.62739394 L4.10715152,43.0797576 C4.10715152,43.5466667 4.20315152,43.7658182 4.23660606,43.8060606 L4.37333333,43.8099394 C4.70884848,43.8099394 5.14327273,43.6363636 5.47878788,43.366303 L16.1721212,34.0916364 C17.8458182,32.7224242 20.3684848,32.7612121 21.9490909,34.0528485 L32.3185455,43.446303 C32.5619394,43.5170909 32.8572121,43.1403636 32.8572121,42.1013333 L32.8572121,6.7849697 C32.8572121,4.12169697 31.8307879,4.11393939 30.9241212,4.10715152 M4.37333333,47.9170909 C2.19636364,47.9170909 0,46.4208485 0,43.0797576 L0,6.62739394 C0,0.707393939 4.08145455,0.0198787879 5.83709091,0 L30.9401212,0 C32.7626667,0.0130909091 36.9643636,0.702060606 36.9643636,6.7849697 L36.9643636,42.1013333 C36.9643636,47.8196364 32.0620606,48.7796364 29.5539394,46.4824242 L19.2698182,37.1636364 C19.305697,37.2024242 19.2106667,37.1597576 19.0836364,37.158303 C18.9527273,37.158303 18.857697,37.1985455 18.8150303,37.2334545 L8.11006061,46.5187879 C6.98424242,47.4264242 5.64315152,47.9170909 4.37333333,47.9170909" id="17" fill="#050101"></path>
    </g>
</svg>