<?xml version="1.0" encoding="UTF-8"?>
<svg width="48px" height="48px" viewBox="0 0 48 48" version="1.1" xmlns="http://www.w3.org/2000/svg" xmlns:xlink="http://www.w3.org/1999/xlink">
    <!-- Generator: Sketch 49.1 (51147) - http://www.bohemiancoding.com/sketch -->
    <title>18</title>
    <desc>Created with Sketch.</desc>
    <defs></defs>
    <g id="Page-1" stroke="none" stroke-width="1" fill="none" fill-rule="evenodd">
        <path d="M37.1588571,22.1177143 L31.1811429,26.6691429 C30.7422857,27.0017143 30.5674286,27.5708571 30.7422857,28.0851429 L33.444,36.0188571 C33.8502857,37.212 32.4428571,38.2045714 31.4142857,37.4502857 L24.7525714,32.5594286 C24.288,32.2182857 23.6468571,32.2182857 23.1805714,32.5594286 L16.5188571,37.4502857 C15.4902857,38.2045714 14.0811429,37.212 14.4891429,36.0188571 L17.1908571,28.0851429 C17.3674286,27.5708571 17.1908571,27.0017143 16.7537143,26.6691429 L10.776,22.1177143 C9.79028571,21.3685714 10.4005714,19.7468571 11.6468571,19.7468571 L18.5537143,19.7468571 C19.1108571,19.7468571 19.7674286,19.4777143 19.9508571,18.9617143 L22.7297143,11.1462857 C23.1377143,9.99771429 24.7954286,9.99771429 25.2051429,11.1462857 L27.9822857,18.9617143 C28.1657143,19.4777143 29.0434286,19.7468571 29.6022857,19.7468571 L36.5057143,19.7468571 C37.7554286,19.7468571 38.1428571,21.3685714 37.1588571,22.1177143 M24,0 C10.7451429,0 0,10.7451429 0,24 C0,37.2548571 10.7451429,48 24,48 C37.2548571,48 48,37.2548571 48,24 C48,10.7451429 37.2548571,0 24,0" id="18" fill="#000000"></path>
    </g>
</svg>