<?xml version="1.0" encoding="UTF-8"?>
<svg width="48px" height="48px" viewBox="0 0 48 48" version="1.1" xmlns="http://www.w3.org/2000/svg" xmlns:xlink="http://www.w3.org/1999/xlink">
    <!-- Generator: Sketch 49.1 (51147) - http://www.bohemiancoding.com/sketch -->
    <title>19</title>
    <desc>Created with Sketch.</desc>
    <defs></defs>
    <g id="Page-1" stroke="none" stroke-width="1" fill="none" fill-rule="evenodd">
        <path d="M9.67636784,44.3088586 L38.3251405,44.3088586 C38.3269866,44.2700891 38.3269866,44.2276274 38.3269866,44.1814733 L38.3269866,25.5850635 C38.3269866,24.565981 39.1522219,23.7388995 40.1731506,23.7388995 L43.6439389,23.7388995 C39.0045288,19.3561062 34.3134261,14.6871575 29.7718628,10.1640558 C27.8407752,8.24219909 25.9152262,6.32588088 24.0007542,4.43725512 C22.0899744,6.32218855 20.1718101,8.2311221 18.2444149,10.1492865 C13.7102361,14.6650036 9.02467196,19.3265676 4.35572325,23.7388995 L7.8283577,23.7388995 C8.84928638,23.7388995 9.67452168,24.565981 9.67452168,25.5850635 L9.67452168,44.1814733 C9.67452168,44.2276274 9.67452168,44.2700891 9.67636784,44.3088586 M38.4359103,48.0011866 L9.62652141,48.0011866 C8.2640524,48.0011866 5.98219372,47.5045684 5.98219372,44.1814733 L5.98219372,27.4312275 L3.09848558,27.4312275 C1.80247847,27.4312275 0.707703229,26.727839 0.238777578,25.5942943 C-0.292917648,24.3093642 0.0800074755,22.7604326 1.19139819,21.6490419 C6.06157877,17.0687091 10.9317593,12.2206825 15.6376313,7.53327212 C18.0081059,5.17572072 20.3638111,2.8292463 22.7084394,0.52892598 C23.424751,-0.17630866 24.5749112,-0.17630866 25.2930689,0.52892598 C27.6413895,2.83478479 30.0044794,5.1867977 32.3768001,7.54804143 C37.080826,12.2317594 41.945468,17.0742476 46.7676484,21.6084263 C47.9196547,22.7604326 48.294426,24.3093642 47.7627307,25.5924482 C47.2938051,26.727839 46.1971837,27.4312275 44.9030227,27.4312275 L42.0193146,27.4312275 L42.0193146,44.1814733 C42.0193146,47.5045684 39.7743792,48.0011866 38.4359103,48.0011866" id="19" fill="#000000"></path>
    </g>
</svg>