<?xml version="1.0" encoding="UTF-8"?>
<svg width="48px" height="48px" viewBox="0 0 48 48" version="1.1" xmlns="http://www.w3.org/2000/svg" xmlns:xlink="http://www.w3.org/1999/xlink">
    <!-- Generator: Sketch 49.1 (51147) - http://www.bohemiancoding.com/sketch -->
    <title>Fill 1</title>
    <desc>Created with Sketch.</desc>
    <defs></defs>
    <g id="Page-1" stroke="none" stroke-width="1" fill="none" fill-rule="evenodd">
        <path d="M8.75934803,32.5810163 C5.58389262,29.4055609 3.83509108,25.177373 3.83509108,20.674976 C3.83509108,16.1706616 5.58389262,11.9424736 8.75934803,8.76893576 C11.9405561,5.58772771 16.1668265,3.83509108 20.6634708,3.83509108 C25.1620326,3.83509108 29.3902205,5.58772771 32.5714286,8.76893576 C35.746884,11.9424736 37.4956855,16.1706616 37.4956855,20.674976 C37.4956855,25.177373 35.746884,29.4055609 32.5714286,32.5810163 C29.3902205,35.7622244 25.1620326,37.5129434 20.6634708,37.5129434 C16.168744,37.5129434 11.9405561,35.7622244 8.75934803,32.5810163 M47.2924257,44.7248322 L36.5081496,33.9424736 C39.6260786,30.2301055 41.3307766,25.5877277 41.3307766,20.674976 C41.3307766,15.1466922 39.1831256,9.95397891 35.282838,6.05560882 C31.3787152,2.1514861 26.1860019,0 20.6634708,0 C15.1428571,0 9.95206136,2.1514861 6.04793864,6.05560882 C2.14765101,9.95397891 0,15.1466922 0,20.674976 C0,26.2013423 2.14765101,31.3940556 6.04793864,35.2924257 C9.95397891,39.198466 15.1447747,41.3480345 20.6634708,41.3480345 C25.5071908,41.3480345 30.0977948,39.6912752 33.7909875,36.6462128 L44.5810163,47.4381592 C44.9549377,47.8120805 45.4458293,48 45.936721,48 C46.4276127,48 46.9165868,47.8120805 47.2924257,47.4381592 C48.0402685,46.6883988 48.0402685,45.4745925 47.2924257,44.7248322" id="Fill-1" fill="#333434"></path>
    </g>
</svg>