<?xml version="1.0" encoding="UTF-8"?>
<svg width="46px" height="46px" viewBox="0 0 46 46" version="1.1" xmlns="http://www.w3.org/2000/svg" xmlns:xlink="http://www.w3.org/1999/xlink">
    <!-- Generator: Sketch 49.1 (51147) - http://www.bohemiancoding.com/sketch -->
    <title>20</title>
    <desc>Created with Sketch.</desc>
    <defs></defs>
    <g id="Page-1" stroke="none" stroke-width="1" fill="none" fill-rule="evenodd">
        <path d="M27.3493333,42.1573333 C30.64,38.5493333 32.9733333,34.568 34.2586667,30.4133333 C36.5466667,30.6773333 38.6693333,31.0666667 40.6666667,31.528 C38.088,36.8346667 33.2213333,40.8133333 27.3493333,42.1573333 Z M5.34666667,31.8213333 C7.472,31.36 9.69066667,30.9946667 11.96,30.6986667 C13.2773333,34.7813333 15.6106667,38.6906667 18.8746667,42.2373333 C12.9546667,40.9866667 8.01866667,37.0746667 5.34666667,31.8213333 Z M18.864,3.63466667 C15.7333333,7.02933333 13.4533333,10.7573333 12.112,14.656 C9.86666667,14.368 7.67466667,14.008 5.57066667,13.5573333 C8.288,8.552 13.12,4.848 18.864,3.63466667 Z M40.448,13.8586667 C38.464,14.304 36.3706667,14.6853333 34.1093333,14.944 C32.7946667,10.9706667 30.5173333,7.17066667 27.36,3.71466667 C33.0586667,5.01866667 37.8186667,8.79466667 40.448,13.8586667 Z M34.928,18.0533333 C37.3493333,17.7653333 39.6,17.3493333 41.7066667,16.8533333 C42.3253333,18.7626667 42.6666667,20.7946667 42.6666667,22.9066667 C42.6666667,24.856 42.3733333,26.736 41.848,28.5146667 C39.7306667,28.008 37.4586667,27.5893333 35.0186667,27.296 C35.28,25.8373333 35.4586667,24.3706667 35.456,22.8933333 C35.456,21.2693333 35.248,19.6533333 34.928,18.0533333 Z M24.5306667,26.6773333 L24.5306667,18.6586667 C26.9973333,18.6533333 29.4,18.528 31.7466667,18.344 C32.0586667,19.8426667 32.256,21.3573333 32.256,22.896 C32.2586667,24.2693333 32.0826667,25.6373333 31.8213333,27 C29.4533333,26.808 27.024,26.6826667 24.5306667,26.6773333 Z M24.5306667,29.8693333 C26.7386667,29.872 28.888,29.976 30.9946667,30.1306667 C29.7413333,33.7946667 27.568,37.3173333 24.5306667,40.5173333 L24.5306667,29.8693333 Z M21.3333333,29.944 L21.3333333,40.192 C18.4933333,37.1333333 16.4186667,33.7946667 15.1946667,30.32 C17.232,30.1253333 19.2826667,30.008 21.3333333,29.944 Z M21.3333333,15.392 C19.3253333,15.328 17.3173333,15.2133333 15.32,15.0266667 C16.552,11.728 18.584,8.58133333 21.3333333,5.65333333 L21.3333333,15.392 Z M24.5306667,5.33333333 C27.4773333,8.40266667 29.6053333,11.728 30.8693333,15.2133333 C28.8026667,15.3626667 26.6933333,15.464 24.5306667,15.4666667 L24.5306667,5.33333333 Z M13.8666667,22.896 C13.8693333,21.296 14.072,19.7173333 14.416,18.1573333 C16.7066667,18.3866667 19.0213333,18.512 21.3333333,18.5813333 L21.3333333,26.7546667 C18.9946667,26.824 16.656,26.952 14.3386667,27.1813333 C14.0533333,25.7626667 13.8666667,24.3306667 13.8666667,22.896 Z M3.19733333,22.9066667 C3.19733333,20.6853333 3.58666667,18.5573333 4.26933333,16.5653333 C6.50133333,17.064 8.85333333,17.448 11.2506667,17.768 C10.8933333,19.4613333 10.6693333,21.1706667 10.6666667,22.8933333 C10.6666667,24.4666667 10.864,26.0293333 11.16,27.5813333 C8.736,27.9066667 6.35466667,28.296 4.09866667,28.8053333 C3.51466667,26.9413333 3.19733333,24.96 3.19733333,22.9066667 Z M44.4853333,30.6826667 C45.3626667,28.248 45.864,25.6373333 45.864,22.9066667 C45.864,20.1973333 45.368,17.608 44.5013333,15.1946667 C44.5386667,14.9733333 44.5386667,14.7413333 44.4746667,14.5093333 C44.384,14.1813333 44.176,13.9253333 43.9306667,13.7253333 C40.4426667,5.78933333 32.5866667,0.208 23.424,0.024 C23.368,0.0186666667 23.3146667,0.016 23.2613333,0.016 C23.16,0.016 23.064,0 22.9653333,0 C22.9546667,0 22.9466667,0.00266666667 22.9386667,0.00266666667 C22.936,0.00266666667 22.936,0 22.9333333,0 C22.928,0 22.9253333,0.00266666667 22.9226667,0.00266666667 C22.888,0.00266666667 22.8533333,0.008 22.8186667,0.008 C22.816,0.008 22.8133333,0.008 22.8106667,0.008 C10.2213333,0.0933333333 0,10.328 0,22.9066667 C0,35.5546667 10.28,45.8426667 22.9226667,45.8666667 C22.9253333,45.8666667 22.928,45.8693333 22.9333333,45.8693333 C22.936,45.8693333 22.9386667,45.8666667 22.9386667,45.8666667 C22.9493333,45.8666667 22.9573333,45.8693333 22.9653333,45.8693333 C23.0346667,45.8693333 23.1013333,45.8586667 23.1733333,45.8586667 C23.192,45.8586667 23.2133333,45.8693333 23.232,45.8693333 C23.2613333,45.8693333 23.288,45.8506667 23.3146667,45.8506667 C32.8506667,45.704 40.976,39.6906667 44.2746667,31.256 C44.3573333,31.1226667 44.432,30.984 44.4746667,30.8266667 C44.488,30.776 44.4746667,30.7306667 44.4853333,30.6826667 Z" id="20" fill="#000000"></path>
    </g>
</svg>