<?xml version="1.0" encoding="UTF-8"?>
<svg width="44px" height="45px" viewBox="0 0 44 45" version="1.1" xmlns="http://www.w3.org/2000/svg" xmlns:xlink="http://www.w3.org/1999/xlink">
    <!-- Generator: Sketch 49.1 (51147) - http://www.bohemiancoding.com/sketch -->
    <title>21</title>
    <desc>Created with Sketch.</desc>
    <defs></defs>
    <g id="Page-1" stroke="none" stroke-width="1" fill="none" fill-rule="evenodd">
        <path d="M16.6338661,25.0429185 C16.6548926,25.0422931 16.6759979,25.0419783 16.6971778,25.0419783 C17.8491778,25.0419783 18.7841343,25.9748478 18.7841343,27.1289348 L18.7862213,40.7985 C18.7862213,41.9505 17.8533517,42.8854565 16.6992648,42.8854565 C15.5472648,42.8854565 14.6123083,41.9525869 14.6123083,40.7985 L14.6109994,32.2254866 L3.58190825,43.537213 C3.17286478,43.9566913 2.63025608,44.1674739 2.08764739,44.1674739 C1.56173434,44.1674739 1.03790825,43.9713 0.630951733,43.5747783 C-0.19548305,42.7713 -0.212178702,41.4481696 0.593386516,40.6238217 L11.7148536,29.2173522 L2.08827347,29.2173522 C0.934186516,29.2173522 0.00131695044,28.2823956 0.00131695044,27.1303956 C0.00131695044,25.9763087 0.934186516,25.0434391 2.08827347,25.0434391 L15.7557517,25.0434391 C15.911423,25.0434391 16.0631309,25.0605119 16.209104,25.0928858 C16.3488585,25.0617272 16.4912493,25.0450565 16.6338661,25.0429185 Z M23.0111316,18.3115641 C22.9765354,18.1609351 22.9582561,18.0041001 22.9582561,17.8430217 L22.9582561,4.17345651 C22.9582561,3.01936956 23.8932126,2.08649999 25.0452126,2.08649999 C26.1992996,2.08649999 27.1321691,3.01936956 27.1321691,4.17345651 L27.1321691,14.0459171 L40.2152996,0.629386949 C41.0187778,-0.194960877 42.3419083,-0.211656529 43.1662561,0.591821732 C43.9906039,1.39529999 44.0072996,2.71843043 43.2017343,3.54277825 L30.3775827,16.695613 L38.7143604,16.695613 C39.8684474,16.695613 40.801317,17.6305696 40.801317,18.7825696 C40.801317,19.9345696 39.8663604,20.8695261 38.7143604,20.8695261 L25.0447952,20.8695261 C23.8927952,20.8695261 22.9578387,19.9345696 22.9578387,18.7825696 C22.9578387,18.6205516 22.9762651,18.4628935 23.0111316,18.3115641 Z" id="21" fill="#050101"></path>
    </g>
</svg>