<?xml version="1.0" encoding="UTF-8"?>
<svg width="45px" height="29px" viewBox="0 0 45 29" version="1.1" xmlns="http://www.w3.org/2000/svg" xmlns:xlink="http://www.w3.org/1999/xlink">
    <!-- Generator: Sketch 49.1 (51147) - http://www.bohemiancoding.com/sketch -->
    <title>26</title>
    <desc>Created with Sketch.</desc>
    <defs></defs>
    <g id="Page-1" stroke="none" stroke-width="1" fill="none" fill-rule="evenodd">
        <path d="M12.7834799,28.2536207 C12.6053299,28.2536207 12.4282403,28.1846207 12.3020507,28.0466207 L0.429625223,15.1306207 C0.179366879,15.0496207 0.000156454925,14.8256207 0.000156454925,14.5636207 C0.000156454925,14.5426207 0.00121687164,14.5216207 0.00333770506,14.5016207 C-0.0136289623,14.3456207 0.0340897897,14.1856207 0.146493961,14.0576207 L12.292507,0.216620732 C12.5173153,-0.0383792677 12.9181528,-0.0723792677 13.1885591,0.136620732 C13.4589654,0.348620732 13.4971404,0.726620732 13.2733924,0.981620732 L1.88027528,13.9626207 L44.3648104,13.9626207 C44.7158083,13.9626207 45,14.2316207 45,14.5636207 C45,14.8946207 44.7158083,15.1626207 44.3648104,15.1626207 L2.14325863,15.1626207 L13.2638487,27.2616207 C13.4939591,27.5116207 13.4653279,27.8906207 13.2002237,28.1076207 C13.0793362,28.2056207 12.9308778,28.2536207 12.7834799,28.2536207" id="26" fill="#000000"></path>
    </g>
</svg>