<?xml version="1.0" encoding="UTF-8"?>
<svg width="29px" height="46px" viewBox="0 0 29 46" version="1.1" xmlns="http://www.w3.org/2000/svg" xmlns:xlink="http://www.w3.org/1999/xlink">
    <!-- Generator: Sketch 49.1 (51147) - http://www.bohemiancoding.com/sketch -->
    <title>28</title>
    <desc>Created with Sketch.</desc>
    <defs></defs>
    <g id="Page-1" stroke="none" stroke-width="1" fill="none" fill-rule="evenodd">
        <path d="M4.78347991,37.2536207 C4.6053299,37.2536207 4.42824031,37.1846207 4.30205072,37.0466207 L-7.57037478,24.1306207 C-7.82063312,24.0496207 -7.99984355,23.8256207 -7.99984355,23.5636207 C-7.99984355,23.5426207 -7.99878313,23.5216207 -7.99666229,23.5016207 C-8.01362896,23.3456207 -7.96591021,23.1856207 -7.85350604,23.0576207 L4.29250697,9.21662073 C4.51731531,8.96162073 4.91815283,8.92762073 5.18855909,9.13662073 C5.45896535,9.34862073 5.49714035,9.72662073 5.27339243,9.98162073 L-6.11972472,22.9626207 L36.3648104,22.9626207 C36.7158083,22.9626207 37,23.2316207 37,23.5636207 C37,23.8946207 36.7158083,24.1626207 36.3648104,24.1626207 L-5.85674137,24.1626207 L5.26384868,36.2616207 C5.4939591,36.5116207 5.46532785,36.8906207 5.20022367,37.1076207 C5.07933617,37.2056207 4.93087783,37.2536207 4.78347991,37.2536207" id="28" fill="#000000" transform="translate(14.500000, 23.126810) scale(-1, 1) rotate(90.000000) translate(-14.500000, -23.126810) "></path>
    </g>
</svg>