<?xml version="1.0" encoding="UTF-8"?>
<svg width="29px" height="45px" viewBox="0 0 29 45" version="1.1" xmlns="http://www.w3.org/2000/svg" xmlns:xlink="http://www.w3.org/1999/xlink">
    <!-- Generator: Sketch 49.1 (51147) - http://www.bohemiancoding.com/sketch -->
    <title>29</title>
    <desc>Created with Sketch.</desc>
    <defs></defs>
    <g id="Page-1" stroke="none" stroke-width="1" fill="none" fill-rule="evenodd">
        <path d="M4.41029027,36.6268104 C4.23214026,36.6268104 4.05505067,36.5578104 3.92886108,36.4198104 L-7.94356441,23.5038104 C-8.19382275,23.4228104 -8.37303318,23.1988104 -8.37303318,22.9368104 C-8.37303318,22.9158104 -8.37197276,22.8948104 -8.36985193,22.8748104 C-8.3868186,22.7188104 -8.33909984,22.5588104 -8.22669567,22.4308104 L3.91931733,8.58981037 C4.14412568,8.33481037 4.54496319,8.30081037 4.81536945,8.50981037 C5.08577572,8.72181037 5.12395072,9.09981037 4.90020279,9.35481037 L-6.49291435,22.3358104 L35.9916208,22.3358104 C36.3426187,22.3358104 36.6268104,22.6048104 36.6268104,22.9368104 C36.6268104,23.2678104 36.3426187,23.5358104 35.9916208,23.5358104 L-6.22993101,23.5358104 L4.89065904,35.6348104 C5.12076947,35.8848104 5.09213822,36.2638104 4.82703404,36.4808104 C4.70614653,36.5788104 4.55768819,36.6268104 4.41029027,36.6268104" id="29" fill="#000000" transform="translate(14.126810, 22.500000) scale(-1, -1) rotate(90.000000) translate(-14.126810, -22.500000) "></path>
    </g>
</svg>