<?xml version="1.0" encoding="UTF-8"?>
<svg width="53px" height="48px" viewBox="0 0 53 48" version="1.1" xmlns="http://www.w3.org/2000/svg" xmlns:xlink="http://www.w3.org/1999/xlink">
    <!-- Generator: Sketch 49.1 (51147) - http://www.bohemiancoding.com/sketch -->
    <title>Fill 7</title>
    <desc>Created with Sketch.</desc>
    <defs></defs>
    <g id="Page-1" stroke="none" stroke-width="1" fill="none" fill-rule="evenodd">
        <path d="M28.1261072,48 C23.0385568,48 18.0859822,47.4678838 17.829009,47.4393312 C17.1177902,47.3614605 16.6038438,46.722921 16.6791188,46.0091065 C16.7569894,45.2952921 17.3799548,44.77875 18.1119391,44.8592163 C18.1872141,44.8695991 25.8003699,45.6768584 31.6588399,45.2978878 C32.8917922,45.2174214 33.5874369,45.0097663 33.9612161,44.8410465 C33.7873049,44.7683672 33.5459058,44.6904965 33.2292318,44.6282 C29.571906,43.9403424 29.4057819,42.0922119 29.4421215,41.5419258 C29.4914396,40.7917717 30.0702783,39.0189161 34.3479737,38.7878998 C39.1967208,38.5361179 48.7826002,39.8313667 51.6274754,40.9111734 C52.2971631,41.1655509 52.632007,41.915705 52.3802252,42.5853928 C52.123252,43.2576762 51.3705022,43.584733 50.7034101,43.3381426 C48.1855918,42.3777376 38.8592812,41.139594 34.4907366,41.3783974 C33.4810136,41.4355025 32.8476655,41.5808611 32.4660992,41.7158369 C32.7438379,41.8378343 33.1513611,41.9728102 33.7094342,42.0792334 C36.1493819,42.5386704 36.941067,43.9247683 36.8761748,44.9734266 C36.8320481,45.7521333 36.2428267,47.5976682 31.8327511,47.8883854 C30.6335428,47.966256 29.3746336,48 28.1261072,48 Z M46.4810028,0.262164588 C46.7898898,0.0804663588 47.0909897,0 47.3583457,0 C48.1500308,0 48.6042764,0.726792918 47.856718,1.6975806 C43.9579931,6.77215258 39.5868528,11.6780048 33.484388,18.0218687 C27.6544705,24.0802068 17.8427661,33.9931431 17.8427661,33.9931431 C17.8427661,33.9931431 17.3443939,32.4175598 16.5579001,31.7193195 C15.7817891,31.0340576 15.265247,30.7433404 14.2503326,30.3773483 C20.4773905,23.2288208 23.060101,21.2353317 29.720639,14.7668747 C40.3629638,4.42305404 45.4842582,0.846194612 46.4810028,0.262164588 Z M6.26858892,34.0294827 C7.44443603,32.6304063 9.27180108,31.932166 11.0446567,31.932166 C12.5968787,31.932166 14.1075697,32.4668779 15.1017186,33.5414932 C17.167887,35.7685943 17.9310196,39.9061226 13.5157526,43.7010199 C8.35292718,48.1422438 0,44.8976325 0,44.8976325 C0,44.8976325 2.4529261,44.2201577 3.65213441,41.3597084 C4.41526698,39.5375347 3.81566282,36.9418458 6.26858892,34.0294827 Z" id="Fill-7" fill="#231916"></path>
    </g>
</svg>