<?xml version="1.0" encoding="UTF-8"?>
<svg width="48px" height="48px" viewBox="0 0 48 48" version="1.1" xmlns="http://www.w3.org/2000/svg" xmlns:xlink="http://www.w3.org/1999/xlink">
    <!-- Generator: Sketch 49.1 (51147) - http://www.bohemiancoding.com/sketch -->
    <title>34</title>
    <desc>Created with Sketch.</desc>
    <defs></defs>
    <g id="Page-1" stroke="none" stroke-width="1" fill="none" fill-rule="evenodd">
        <path d="M24,1.52380952 C11.6060952,1.52380952 1.52380952,11.6060952 1.52380952,24 C1.52380952,36.3939048 11.6060952,46.4761905 24,46.4761905 C36.3939048,46.4761905 46.4761905,36.3939048 46.4761905,24 C46.4761905,11.6060952 36.3939048,1.52380952 24,1.52380952 M24,48 C10.7664762,48 0,37.2335238 0,24 C0,10.7664762 10.7664762,0 24,0 C37.2335238,0 48,10.7664762 48,24 C48,37.2335238 37.2335238,48 24,48 M24.2961524,37.9025524 C23.8793905,37.9025524 23.538819,37.5673143 23.5342476,37.1490286 L23.2378667,10.5395048 C23.2332952,10.1189333 23.570819,9.77455238 23.9913905,9.76921905 L23.9997714,9.76921905 C24.4172952,9.76921905 24.7571048,10.105219 24.7616762,10.5227429 L25.0580571,37.1322667 C25.0626286,37.5528381 24.7251048,37.897981 24.3045333,37.9025524 L24.2961524,37.9025524 Z M36.9508571,25.2797714 L36.935619,25.2797714 L11.5733333,24.7822476 C11.1527619,24.7738667 10.8182857,24.4264381 10.8259048,24.0058667 C10.8342857,23.5852952 11.1893333,23.2729143 11.6030476,23.2584381 L36.9660952,23.7559619 C37.3866667,23.7643429 37.7211429,24.1117714 37.7127619,24.5331048 C37.704381,24.9483429 37.3653333,25.2797714 36.9508571,25.2797714" id="34" fill="#333434"></path>
    </g>
</svg>