<?xml version="1.0" encoding="UTF-8"?>
<svg width="49px" height="48px" viewBox="0 0 49 48" version="1.1" xmlns="http://www.w3.org/2000/svg" xmlns:xlink="http://www.w3.org/1999/xlink">
    <!-- Generator: Sketch 49.1 (51147) - http://www.bohemiancoding.com/sketch -->
    <title>35</title>
    <desc>Created with Sketch.</desc>
    <defs></defs>
    <g id="Page-1" stroke="none" stroke-width="1" fill="none" fill-rule="evenodd">
        <path d="M14.2477247,28.5281745 L13.1379891,35.2616825 L19.5850241,33.9739443 C25.2727663,28.2862021 28.5296592,25.0738098 31.5807366,22.0616706 C35.2214478,18.4682413 38.5701234,15.161285 45.423227,8.2720247 C45.5511664,7.95495741 45.4927593,7.82701797 45.3842889,7.70742241 L40.5198091,2.84572395 C40.4669646,2.79009811 39.9357378,2.79009811 39.8662055,2.84016137 L14.2477247,28.5281745 Z M12.9238297,38.0846939 C12.1561931,38.0846939 11.4636513,37.7620641 10.9685814,37.180774 C10.4596049,36.5827962 10.2343203,35.7484086 10.3678223,34.9557404 L11.5776843,27.6381611 C11.622185,27.3489067 11.7584683,27.084684 11.9642839,26.8788684 L37.9665831,0.809818189 C39.2431961,-0.327730249 41.3792284,-0.23316632 42.4889639,0.882131782 L47.3923817,5.78276833 C48.0487667,6.49756038 48.365834,7.34029187 48.3241146,8.19692981 C48.2879578,9.0035045 47.937515,9.74610947 47.3395372,10.2828988 C40.5309343,17.1304398 37.1794774,20.4429586 33.5332036,24.0419505 C30.4348443,27.0985904 27.1223255,30.3693898 21.2537993,36.237916 C21.0591088,36.4353878 20.8115738,36.5661085 20.5417885,36.618953 L13.4884319,38.0262868 C13.3048667,38.0652249 13.1129575,38.0846939 12.9238297,38.0846939 Z M38.0758878,48 L5.48748917,48 C2.46144344,48 0,45.5385566 0,42.5125108 L0,9.92689345 C0,6.90084773 2.46144344,4.43662299 5.48748917,4.43662299 L21.8192359,4.43662299 C22.5896538,4.43662299 23.209882,5.05963241 23.209882,5.827269 C23.209882,6.5949056 22.5896538,7.21791502 21.8192359,7.21791502 L5.48748917,7.21791502 C3.99671664,7.21791502 2.78129203,8.43055834 2.78129203,9.92689345 L2.78129203,42.5125108 C2.78129203,44.0310963 3.96890372,45.218708 5.48748917,45.218708 L38.0758878,45.218708 C39.5332849,45.218708 40.7181153,44.0032834 40.7181153,42.5125108 L40.7181153,25.5049101 C40.7181153,24.7372735 41.3411247,24.1142641 42.1087613,24.1142641 C42.8791792,24.1142641 43.4994073,24.7372735 43.4994073,25.5049101 L43.4994073,42.5125108 C43.4994073,45.5385566 41.0657768,48 38.0758878,48 Z" id="35" fill="#000000"></path>
    </g>
</svg>