<?xml version="1.0" encoding="UTF-8"?>
<svg width="42px" height="48px" viewBox="0 0 42 48" version="1.1" xmlns="http://www.w3.org/2000/svg" xmlns:xlink="http://www.w3.org/1999/xlink">
    <!-- Generator: Sketch 49.1 (51147) - http://www.bohemiancoding.com/sketch -->
    <title>36</title>
    <desc>Created with Sketch.</desc>
    <defs></defs>
    <g id="Page-1" stroke="none" stroke-width="1" fill="none" fill-rule="evenodd">
        <path d="M17.2523624,2.61152547 L9.22011326,2.61152547 C8.49940431,2.61152547 7.91448109,2.02660226 7.91448109,1.3058933 C7.91448109,0.585184339 8.49940431,0.000261126434 9.22011326,0.000261126434 L17.2523624,0.000261126434 C17.9730713,0.000261126434 18.5579945,0.585184339 18.5579945,1.3058933 C18.5579945,2.02660226 17.9730713,2.61152547 17.2523624,2.61152547 M2.61126434,37.8342174 C3.37186631,37.4234204 4.26887957,37.1974605 5.26169765,37.1974605 L34.6149201,37.1974605 C38.2524113,37.1974605 38.7955543,34.4791344 38.7955543,32.8575392 L38.7955543,3.53826318 C38.7224389,3.30324939 38.0774566,2.67393469 37.7693274,2.60604181 L17.2526235,2.61126434 C16.5319145,2.61126434 15.9469913,2.02634113 15.9469913,1.30563217 C15.9469913,0.584923213 16.5319145,0 17.2526235,0 L37.824164,0 C39.4327028,0 41.4068187,1.95061446 41.4068187,3.53826318 L41.4068187,32.8575392 C41.4068187,32.8965203 41.4065914,32.935374 41.4061379,32.9740995 C41.406764,32.9907858 41.4070798,33.0075542 41.4070798,33.024399 L41.4070798,37.0106385 C41.4079471,37.030154 41.4083854,37.0497804 41.4083854,37.0695086 C41.4083854,37.1282407 41.4079501,37.1866333 41.4070798,37.2446854 L41.4070798,40.5840093 C41.4070798,45.3939582 40.2685685,48 34.2652718,48 C34.2175202,48 34.1703646,47.9974322 34.1239358,47.9924273 L6.25345585,47.9924273 C3.07110504,47.9924273 0.353748134,45.6858735 0.0336022164,42.8407228 C0.0116199329,42.7457943 0,42.6469109 0,42.5453299 C0,42.4814481 0.000890766845,42.4179573 0.00266201254,42.3548681 C0.0022804375,42.3296053 0.00208901147,42.3043092 0.00208901147,42.278981 L0.00208901147,41.3932446 C0.000702569389,41.3686117 0,41.3437969 0,41.3188191 L0,5.44526953 C0,2.44231554 2.48592365,0.000783379302 5.54110293,0.000783379302 L9.22037439,0.000783379302 C9.94369461,0.000783379302 10.5260066,0.583095327 10.5260066,1.30641555 C10.5260066,2.02712451 9.94369461,2.61204772 9.22037439,2.61204772 L5.54110293,2.61204772 C3.92473031,2.61204772 2.61126434,3.88112219 2.61126434,5.44526953 L2.61126434,37.8342174 Z M38.6205419,38.6938943 C37.5403751,39.4145077 36.1830866,39.8087249 34.6149201,39.8087249 L5.26169765,39.8087249 C3.82707041,39.8087249 3.16431515,40.5210855 2.86107248,41.242309 L35.3084719,41.242309 C35.3998662,41.2396977 36.7498898,41.2971456 37.7030013,40.3910368 C38.1381331,39.9746877 38.4447298,39.4072864 38.6205419,38.6938943 Z M3.14339297,43.8534966 C3.75454455,44.7218176 4.85688241,45.381163 6.25345585,45.381163 L34.6170091,45.381163 C34.6497714,45.381163 34.682253,45.3823717 34.7144118,45.384747 C37.4729582,45.3333111 38.3875035,44.7710813 38.6738355,42.9298345 C37.3713841,43.762003 36.0159361,43.8587959 35.4599253,43.8587959 C35.3424184,43.8587959 35.2588579,43.8535734 35.2223002,43.8509621 L3.14339297,43.8534966 Z M9.65332202,15.0199925 C9.34258156,15.0199925 9.02922984,14.9599334 8.73415697,14.8345927 C8.03956065,14.5342973 7.60870204,13.9128164 7.60870204,13.2103863 L7.60870204,1.30563217 C7.60870204,0.584923213 8.19362525,0 8.91433421,0 C9.63765443,0 10.2199664,0.584923213 10.2199664,1.30563217 L10.2199664,11.7167431 L11.9434008,10.0977592 C12.6823887,9.42405301 13.8130661,9.42666427 14.5259413,10.0951479 L15.9490803,11.429504 L15.9490803,1.30563217 C15.9490803,0.584923213 16.5313923,0 17.2547125,0 C17.9754215,0 18.5603447,0.584923213 18.5603447,1.30563217 L18.5603447,13.1320484 C18.5603447,13.87887 18.1164297,14.5473536 17.4296672,14.8450378 C16.7402934,15.1453332 15.936024,15.0017136 15.3876585,14.4846833 L13.2359767,12.466176 L11.0869061,14.4872946 C10.7187179,14.837204 10.1938537,15.0199925 9.65332202,15.0199925" id="36" fill="#000000"></path>
    </g>
</svg>