<?xml version="1.0" encoding="UTF-8"?>
<svg width="48px" height="48px" viewBox="0 0 48 48" version="1.1" xmlns="http://www.w3.org/2000/svg" xmlns:xlink="http://www.w3.org/1999/xlink">
    <!-- Generator: Sketch 49.1 (51147) - http://www.bohemiancoding.com/sketch -->
    <title>37</title>
    <desc>Created with Sketch.</desc>
    <defs></defs>
    <g id="Page-1" stroke="none" stroke-width="1" fill="none" fill-rule="evenodd">
        <path d="M24.0003492,15.1578947 C19.1245597,15.1578947 15.1582439,19.1242105 15.1582439,24 C15.1582439,28.8757895 19.1245597,32.8421053 24.0003492,32.8421053 C28.8761387,32.8421053 32.8424545,28.8757895 32.8424545,24 C32.8424545,19.1242105 28.8761387,15.1578947 24.0003492,15.1578947 M24.0003492,35.3684211 C17.7325597,35.3684211 12.6319281,30.2677895 12.6319281,24 C12.6319281,17.7322105 17.7325597,12.6315789 24.0003492,12.6315789 C30.2681387,12.6315789 35.3687702,17.7322105 35.3687702,24 C35.3687702,30.2677895 30.2681387,35.3684211 24.0003492,35.3684211 M20.7489808,45.4736842 L27.0824545,45.4736842 C27.6079281,41.8534737 30.2454018,36.6037895 37.6601387,36.6037895 C38.9435071,36.6037895 40.343086,36.7654737 41.8285597,37.0787368 L45.102665,32.0791579 C43.5388755,30.5052632 40.3304545,26.7208421 40.6108755,22.4235789 C40.782665,19.8164211 42.1771913,17.5124211 44.7641387,15.5646316 L41.8007702,10.5574737 C40.9645597,10.7444211 39.671086,10.9642105 38.1780334,10.9642105 C34.8938229,10.9642105 29.2020334,9.84252632 26.9712966,2.52631579 L21.3603492,2.52631579 C20.8803492,5.19410526 18.8769808,11.2496842 10.5578229,11.2522105 C9.26182288,11.2522105 7.84708604,11.0981053 6.34645446,10.7949474 L2.96624393,15.7945263 C4.5123492,17.1309474 7.33424393,20.0892632 7.48077025,23.9671579 C7.58940183,26.8774737 6.19487551,29.6437895 3.33003341,32.2105263 L6.42729656,37.3364211 C7.49087551,36.96 9.23403341,36.4749474 11.1641387,36.4749474 C14.0921387,36.4749474 19.1119281,37.6749474 20.7489808,45.4736842 M28.2420334,48 L19.6980334,48 C19.0765597,48 18.5485597,47.5477895 18.4500334,46.9338947 C17.6163492,41.6690526 15.1632966,39.0012632 11.1641387,39.0012632 C8.66813867,39.0012632 6.47277025,40.0370526 6.45003341,40.0471579 C5.86645446,40.3250526 5.15908604,40.1178947 4.82308604,39.5621053 L0.611717617,32.5970526 C0.285822881,32.0564211 0.409612354,31.3566316 0.899717617,30.96 C3.67866499,28.7216842 5.04287551,26.4025263 4.95445446,24.0631579 C4.80540183,20.0741053 0.588980775,17.1258947 0.546033407,17.0955789 C-0.0249139616,16.704 -0.171440277,15.9233684 0.217612354,15.3473684 L4.73466499,8.67031579 C5.02771762,8.23578947 5.56582288,8.03115789 6.06855972,8.14736842 C7.70055972,8.52884211 9.21129656,8.72589474 10.5578229,8.72589474 C18.7304545,8.72336842 18.9755071,1.54105263 18.9805597,1.23536842 C18.9957176,0.548210526 19.5565597,0 20.2437176,0 L27.9338229,0 C28.5148755,0 29.022665,0.396631579 29.159086,0.962526316 C30.3792966,5.92421053 33.4134018,8.43789474 38.1780334,8.43789474 C40.3127702,8.43789474 41.9877176,7.89726316 42.0028755,7.89473684 C42.5738229,7.70526316 43.1851913,7.94021053 43.4883492,8.448 L47.5355071,15.2842105 C47.8816124,15.8677895 47.7047702,16.6206316 47.1338229,16.9894737 C44.6176124,18.6189474 43.271086,20.4985263 43.1321387,22.5802105 C42.8491913,26.8496842 47.5102439,30.8867368 47.5557176,30.9246316 C48.0407702,31.3389474 48.1418229,32.0488421 47.7931913,32.5793684 L43.4580334,39.1983158 C43.1649808,39.648 42.6218229,39.8602105 42.0988755,39.7338947 C40.4820334,39.3322105 38.9915071,39.1301053 37.6601387,39.1301053 C29.7174018,39.1301053 29.5102439,46.4463158 29.5051913,46.7570526 C29.495086,47.4467368 28.9317176,48 28.2420334,48" id="37" fill="#333434"></path>
    </g>
</svg>