<?xml version="1.0" encoding="UTF-8"?>
<svg width="48px" height="49px" viewBox="0 0 48 49" version="1.1" xmlns="http://www.w3.org/2000/svg" xmlns:xlink="http://www.w3.org/1999/xlink">
    <!-- Generator: Sketch 49.1 (51147) - http://www.bohemiancoding.com/sketch -->
    <title>38</title>
    <desc>Created with Sketch.</desc>
    <defs></defs>
    <g id="Page-1" stroke="none" stroke-width="1" fill="none" fill-rule="evenodd">
        <path d="M19.8481693,35.6653167 C20.1658382,36.0224044 20.4997383,36.5580358 20.7316134,37.2397486 L44.4570728,13.1687953 C44.6147479,12.1763699 44.7585104,9.28025001 41.8531155,6.43514263 C41.7858717,6.3655801 38.4468704,2.99643501 35.1797504,3.53902273 L10.8606907,27.4221572 C11.7951473,27.628526 12.7017789,28.0783637 13.4321855,28.922389 C13.6802918,29.1960017 14.777061,30.5942085 14.619386,33.5413409 C16.4488804,33.4996034 18.54735,33.9355285 19.8481693,35.6653167 M7.60052692,31.0672336 C7.58661442,31.0950587 7.57733941,31.1228837 7.57038316,31.1483899 L4.21283183,43.8018137 L17.309137,39.9318184 C17.3415995,39.9132684 17.3810183,39.8947184 17.4227558,39.8738496 C17.775206,38.6588242 17.2836308,38.0234864 17.2187057,37.9446489 C16.2610616,36.6275984 13.8449231,37.058886 13.0635041,37.3000361 C12.4606288,37.4901737 11.8067411,37.3371361 11.3499472,36.9081672 C10.895472,36.4791983 10.7006969,35.8369043 10.8514157,35.2293915 C11.5679097,32.3170404 10.7748969,31.1692587 10.7679407,31.1576649 C10.197528,30.4968209 8.5651273,30.7773898 7.60052692,31.0672336 M1.7387246,48.0845466 C1.29352442,48.0845466 0.857599248,47.9129591 0.526017867,47.5952902 C0.0761801883,47.1547275 -0.102363633,46.507796 0.0576301809,45.9002833 L4.19891932,30.2858146 C4.53281946,28.9270265 5.96580752,27.3757822 6.39477644,26.9329008 L6.42260146,26.9073945 L33.0951933,0.710146608 C33.3061996,0.501459026 33.5682185,0.353058967 33.8534248,0.274221435 C39.2537957,-1.20514165 44.1185352,3.77321657 44.324904,3.98422291 C49.3635497,8.92084361 47.7798429,14.316577 47.7102803,14.5461333 C47.6268053,14.8127897 47.4830427,15.0539398 47.2859489,15.2533524 L21.68462,41.2187252 C21.0678323,41.7450816 20.3606132,42.2018756 19.785563,42.5404132 C19.7252755,42.5775132 19.6626692,42.6146132 19.5977442,42.6493945 C19.1270377,42.9160508 18.7769064,43.0853197 18.6980688,43.1247384 C18.6145938,43.1641572 18.5288,43.1989385 18.4383687,43.2267635 L2.23261854,48.0149841 C2.07030598,48.0636779 1.90335591,48.0845466 1.7387246,48.0845466" id="38" fill="#231916"></path>
    </g>
</svg>