<?xml version="1.0" encoding="UTF-8"?>
<svg width="60px" height="48px" viewBox="0 0 60 48" version="1.1" xmlns="http://www.w3.org/2000/svg" xmlns:xlink="http://www.w3.org/1999/xlink">
    <!-- Generator: Sketch 49.1 (51147) - http://www.bohemiancoding.com/sketch -->
    <title>Fill 3</title>
    <desc>Created with Sketch.</desc>
    <defs></defs>
    <g id="Page-1" stroke="none" stroke-width="1" fill="none" fill-rule="evenodd">
        <path d="M29.8022821,12.0508596 C23.2906225,12.0508596 17.9922395,17.4289021 17.9922395,24.0426894 C17.9922395,30.6074553 23.2906225,35.9487319 29.8022821,35.9487319 C36.4078991,35.9487319 41.7838991,30.6074553 41.7838991,24.0426894 C41.7838991,17.4289021 36.4078991,12.0508596 29.8022821,12.0508596 M29.8022821,39.0125617 C21.5993885,39.0125617 14.9284098,32.2966468 14.9284098,24.0426894 C14.9284098,15.7417532 21.5993885,8.98702979 29.8022821,8.98702979 C38.0991332,8.98702979 44.8477289,15.7417532 44.8477289,24.0426894 C44.8477289,32.2966468 38.0991332,39.0125617 29.8022821,39.0125617 M22.4274395,24.0384 C22.4274395,25.5764426 22.9033544,27.0103149 23.7142481,28.2011234 C23.7755247,26.900017 24.7865885,25.8481021 26.1081204,25.8481021 C27.3888012,25.8481021 28.5142481,26.9674213 28.5142481,28.3298043 C28.5142481,29.5349106 27.62778,30.488783 26.535014,30.6909957 C27.5256523,31.1955064 28.6388438,31.489634 29.8092268,31.489634 C33.9780778,31.489634 37.3462481,28.1255489 37.3462481,24.0384 C37.3462481,22.6453787 36.9602055,21.3422298 36.3025034,20.2249532 C35.97978,21.2196766 35.0483757,21.9529532 33.9474395,21.9529532 C32.583014,21.9529532 31.5413119,20.8315915 31.5413119,19.4712511 C31.5413119,18.4356766 32.1438651,17.5900596 33.0344183,17.240783 C32.0560353,16.7771234 30.9632693,16.5095489 29.8092268,16.5095489 C25.7956098,16.5095489 22.4274395,19.873634 22.4274395,24.0384 Z M30.7537034,3.06382979 C30.4820438,3.06382979 30.2083417,3.06791489 29.9346395,3.07608511 C18.8803417,3.31710638 10.330214,9.17106383 3.78383104,20.9729362 C3.56119274,21.4059574 2.39897997,23.8999149 3.63063955,26.1365106 C10.3751502,38.7921702 18.7414481,44.9361702 29.2177034,44.9361702 L29.8529374,44.928 C40.6764268,44.562383 49.553363,38.1814468 56.2222991,25.9608511 C56.8534481,24.7782128 56.8207672,22.4946383 56.3468949,21.5305532 C50.554214,9.62042553 41.4648523,3.06382979 30.7537034,3.06382979 Z M29.2156608,48 C17.6670651,48 8.15285231,41.1349787 0.936511887,27.5969362 C-0.985530666,24.1082553 0.562724653,20.5378723 1.08153316,19.5288511 C8.22638423,6.64851064 17.6302991,0.279829787 29.85498,0.0122553191 C30.1470651,0.00408510638 30.4514055,0 30.7537034,0 C42.700597,0 52.7683417,7.1693617 59.1002566,20.1845106 C60.0541289,22.1269787 59.9724268,25.4420426 58.9184693,27.4171915 C51.687831,40.6692766 41.9407672,47.5853617 29.9407672,47.9918298 L29.2156608,48 Z" id="Fill-3" fill="#000000"></path>
    </g>
</svg>