<?xml version="1.0" encoding="UTF-8"?>
<svg width="43px" height="45px" viewBox="0 0 43 45" version="1.1" xmlns="http://www.w3.org/2000/svg" xmlns:xlink="http://www.w3.org/1999/xlink">
    <!-- Generator: Sketch 49.1 (51147) - http://www.bohemiancoding.com/sketch -->
    <title>44</title>
    <desc>Created with Sketch.</desc>
    <defs></defs>
    <g id="Page-1" stroke="none" stroke-width="1" fill="none" fill-rule="evenodd">
        <path d="M40.6338661,0.000940237675 C40.6548926,0.000314891685 40.6759979,0 40.6971778,0 C41.8491778,0 42.7841343,0.932869565 42.7841343,2.08695652 L42.7862213,15.7565217 C42.7862213,16.9085217 41.8533517,17.8434783 40.6992648,17.8434783 C39.5472648,17.8434783 38.6123083,16.9106087 38.6123083,15.7565217 L38.6109994,7.18350838 L27.5819083,18.4952348 C27.1728648,18.914713 26.6302561,19.1254957 26.0876474,19.1254957 C25.5617343,19.1254957 25.0379083,18.9293217 24.6309517,18.5328 C23.804517,17.7293217 23.7878213,16.4061913 24.5933865,15.5818435 L35.7148536,4.17537391 L26.0882735,4.17537391 C24.9341865,4.17537391 24.001317,3.24041739 24.001317,2.08841739 C24.001317,0.934330435 24.9341865,0.00146086957 26.0882735,0.00146086957 L39.7557517,0.00146086957 C39.911423,0.00146086957 40.0631309,0.0185336095 40.209104,0.050907596 C40.3488585,0.0197489792 40.4912493,0.00307828345 40.6338661,0.000940237675 Z M0.0064434012,41.9216024 C0.00217464431,41.867134 0,41.8120803 0,41.7565217 L0,28.0869565 C0,26.9328696 0.934956522,26 2.08695652,26 C3.24104348,26 4.17391304,26.9328696 4.17391304,28.0869565 L4.17391304,36.9574531 L17.1707778,23.6293869 C17.9742561,22.8050391 19.2973865,22.7883435 20.1217343,23.5918217 C20.9460822,24.3953 20.9627778,25.7184304 20.1572126,26.5427783 L7.0362805,40 L15.7565217,40 C16.9106087,40 17.8434783,40.9349565 17.8434783,42.0869565 C17.8434783,43.2389565 16.9085217,44.173913 15.7565217,44.173913 L2.08695652,44.173913 C0.934956522,44.173913 0,43.2389565 0,42.0869565 C0,42.0312973 0.00217464431,41.9761527 0.0064434012,41.9216024 Z" id="44" fill="#050101"></path>
    </g>
</svg>