<?xml version="1.0" standalone="no"?><!DOCTYPE svg PUBLIC "-//W3C//DTD SVG 1.1//EN" "http://www.w3.org/Graphics/SVG/1.1/DTD/svg11.dtd"><svg t="1530065150869" class="icon" style="" viewBox="0 0 1024 1024" version="1.1" xmlns="http://www.w3.org/2000/svg" p-id="1083" xmlns:xlink="http://www.w3.org/1999/xlink" width="200" height="200"><defs><style type="text/css"></style></defs><path d="M511.999488 117.822452c45.237297 0 87.765903 17.616216 119.753431 49.603745 31.987528 31.987528 49.603745 74.517157 49.603745 119.753431s-17.616216 87.765903-49.603745 119.753431c-31.987528 31.987528-74.517157 49.603745-119.753431 49.603745s-87.765903-17.616216-119.753431-49.603745c-31.987528-31.987528-49.603745-74.517157-49.603745-119.753431s17.616216-87.765903 49.603745-119.753431C424.233586 135.438669 466.762191 117.822452 511.999488 117.822452M511.999488 62.563918c-124.051317 0-224.615711 100.56337-224.615711 224.615711s100.564393 224.615711 224.615711 224.615711c124.052341 0 224.615711-100.56337 224.615711-224.615711S636.050806 62.563918 511.999488 62.563918L511.999488 62.563918z" p-id="1084"></path><path d="M919.453411 961.436082c-13.93743 0.001023-25.917276-10.512425-27.437909-24.684192-20.853957-194.366779-184.224792-340.940043-380.016013-340.940043-195.791222 0-359.162056 146.571217-380.016013 340.940043-1.627057 15.170514-15.248286 26.151613-30.4188 24.523533-15.172561-1.62808-26.151613-15.246239-24.524556-30.4188 11.444657-106.663298 61.760622-205.194382 141.67879-277.441846 80.508615-72.779583 184.66379-112.861464 293.28058-112.861464S724.771453 580.635193 805.279045 653.414777c79.919191 72.248488 130.235157 170.778548 141.67879 277.44287 1.62808 15.171538-9.351995 28.79072-24.524556 30.4188C921.433508 961.383894 920.437831 961.436082 919.453411 961.436082z" p-id="1085"></path></svg>