<?xml version="1.0" encoding="UTF-8"?>
<svg width="38px" height="46px" viewBox="0 0 38 46" version="1.1" xmlns="http://www.w3.org/2000/svg" xmlns:xlink="http://www.w3.org/1999/xlink">
    <!-- Generator: Sketch 49.1 (51147) - http://www.bohemiancoding.com/sketch -->
    <title>46</title>
    <desc>Created with Sketch.</desc>
    <defs></defs>
    <g id="Page-1" stroke="none" stroke-width="1" fill="none" fill-rule="evenodd">
        <path d="M19.787636,6.50313985 L21.8571395,9.30352363 C22.2750218,9.86822951 22.1550218,10.663053 21.5903159,11.0809354 C21.3644336,11.2489354 21.0990218,11.329406 20.8364336,11.329406 C20.4481983,11.329406 20.0627865,11.1515236 19.8143159,10.8141119 L16.1380806,5.83905304 C15.7286689,5.28564127 15.8345512,4.50775892 16.3752571,4.08422951 L21.2416101,0.269641273 C21.7936101,-0.160946963 22.5926689,-0.0663587272 23.0260806,0.485641273 C23.4580806,1.03764127 23.3620806,1.8367001 22.8086689,2.27011186 L20.5700599,4.02496049 C28.0729286,4.87421828 34.6476742,10.4619536 36.6627395,18.0807472 C38.7676806,26.1871001 35.3596806,34.9202766 28.3756806,39.3249824 C28.1653277,39.4576883 27.9309748,39.5212177 27.6994453,39.5212177 C27.2773277,39.5212177 26.8650924,39.3122766 26.6236806,38.9282766 C26.249563,38.3339236 26.4274453,37.5503942 27.0203865,37.1762766 C33.0796806,33.3546295 36.0316806,25.767806 34.2034453,18.7273354 C32.4136631,11.9539579 26.5193233,7.04226911 19.787636,6.50313985 Z M16.6903414,41.8557082 C9.08251285,41.0239982 2.67706338,35.5447205 0.628574757,27.7986295 C-1.54271936,19.4339236 2.04316299,10.5892177 9.34763358,6.28192363 C9.95328064,5.92615892 10.731163,6.12662951 11.0883395,6.7308648 C11.4441042,7.33651186 11.2422218,8.11439421 10.6379865,8.47157068 C4.30622182,12.2042766 1.20033946,19.8871001 3.08786887,27.153453 C4.906501,34.0356766 10.6755488,38.8679871 17.4837603,39.380334 L15.3856101,36.5828889 C14.9649042,36.0225025 15.0778453,35.2249751 15.6397277,34.8043324 C16.2001983,34.3808666 16.9964336,34.4980255 17.4185512,35.0584119 L21.1498453,40.0313124 C21.5649042,40.5874642 21.4590218,41.3736991 20.9112571,41.7971649 L15.9912571,45.6125921 C15.7597277,45.7918593 15.4858453,45.8793756 15.2133748,45.8793756 C14.8336101,45.8793756 14.4594924,45.7099893 14.2081983,45.3867437 C13.7790218,44.8320034 13.8792571,44.0344761 14.4340806,43.6053641 L16.6903414,41.8557082 Z" id="46" fill="#333434"></path>
    </g>
</svg>