<?xml version="1.0" encoding="UTF-8"?>
<svg width="51px" height="48px" viewBox="0 0 51 48" version="1.1" xmlns="http://www.w3.org/2000/svg" xmlns:xlink="http://www.w3.org/1999/xlink">
    <!-- Generator: Sketch 49.1 (51147) - http://www.bohemiancoding.com/sketch -->
    <title>5</title>
    <desc>Created with Sketch.</desc>
    <defs></defs>
    <g id="Page-1" stroke="none" stroke-width="1" fill="none" fill-rule="evenodd">
        <path d="M10.3537021,19.5059745 C10.3537021,17.8515064 11.6731915,16.5095489 13.2970213,16.5095489 C14.9208511,16.5095489 16.2362553,17.8515064 16.2362553,19.5059745 C16.2362553,21.1604426 14.9208511,22.5024 13.2970213,22.5024 C11.6731915,22.5024 10.3537021,21.1604426 10.3537021,19.5059745 Z M23.5914894,19.5059745 C23.5914894,17.8515064 24.9089362,16.5095489 26.532766,16.5095489 C28.1565957,16.5095489 29.472,17.8515064 29.472,19.5059745 C29.472,21.1604426 28.1565957,22.5024 26.532766,22.5024 C24.9089362,22.5024 23.5914894,21.1604426 23.5914894,19.5059745 Z M36.827234,19.5059745 C36.827234,17.8515064 38.1446809,16.5095489 39.7685106,16.5095489 C41.3923404,16.5095489 42.7097872,17.8515064 42.7097872,19.5059745 C42.7097872,21.1604426 41.3923404,22.5024 39.7685106,22.5024 C38.1446809,22.5024 36.827234,21.1604426 36.827234,19.5059745 Z M5.41889362,3.06382979 C3.75829787,3.06382979 3.06382979,3.43353191 3.06382979,5.71710638 L3.06382979,33.4835745 C3.06382979,35.3382128 4.53855319,35.616 5.41889362,35.616 L11.0277447,35.616 C13.3644255,35.616 15.9666383,37.8403404 15.9666383,41.0348936 L15.9666383,43.0876596 L23.2462979,36.7026383 C23.8692766,36.1491064 24.4657021,35.616 25.6626383,35.616 L45.1057021,35.616 C45.5897872,35.616 47.0604255,35.616 47.0604255,33.0321702 L47.0604255,5.71710638 C47.0604255,5.15540426 46.6498723,3.06382979 44.6379574,3.06382979 L5.41889362,3.06382979 Z M14.4347234,48 C14.2202553,48 14.0057872,47.9550638 13.8015319,47.8631489 C13.2541277,47.616 12.9028085,47.0685957 12.9028085,46.4680851 L12.9028085,41.0348936 C12.9028085,39.6194043 11.7732766,38.6798298 11.0277447,38.6798298 L5.41889362,38.6798298 C2.22842553,38.6798298 0,36.5433191 0,33.4835745 L0,5.71710638 C0,0.990638298 2.94740426,0 5.41889362,0 L44.6379574,0 C48.4228085,0 50.1242553,3.34365957 50.1242553,5.71710638 L50.1242553,33.0321702 C50.1242553,36.4636596 48.155234,38.6798298 45.1057021,38.6798298 L25.6626383,38.6798298 C25.6013617,38.6982128 25.5257872,38.7758298 25.4277447,38.861617 L15.4457872,47.6200851 C15.1598298,47.8692766 14.7982979,48 14.4347234,48 Z" id="5" fill="#000000"></path>
    </g>
</svg>