<?xml version="1.0" standalone="no"?><!DOCTYPE svg PUBLIC "-//W3C//DTD SVG 1.1//EN" "http://www.w3.org/Graphics/SVG/1.1/DTD/svg11.dtd"><svg t="1530065680892" class="icon" style="" viewBox="0 0 1024 1024" version="1.1" xmlns="http://www.w3.org/2000/svg" p-id="4789" xmlns:xlink="http://www.w3.org/1999/xlink" width="200" height="200"><defs><style type="text/css"></style></defs><path d="M1008.941176 1024 978.823529 1024C970.511059 1024 963.764706 1017.253647 963.764706 1008.941176L963.764706 617.411765C963.764706 609.099294 970.511059 602.352941 978.823529 602.352941L1008.941176 602.352941C1017.253647 602.352941 1024 609.099294 1024 617.411765L1024 1008.941176C1024 1017.253647 1017.253647 1024 1008.941176 1024ZM1008.941176 542.087529 15.058824 542.087529C6.746353 542.087529 0 535.371294 0 527.058824L0 496.911059C0 488.598588 6.746353 481.852235 15.058824 481.852235L1008.941176 481.852235C1017.253647 481.852235 1024 488.598588 1024 496.911059L1024 527.058824C1024 535.371294 1017.253647 542.087529 1008.941176 542.087529ZM963.764706 421.616941 662.588235 421.616941C629.308235 421.616941 602.352941 394.661647 602.352941 361.381647L602.352941 60.205176C602.352941 26.955294 629.308235-0.030118 662.588235-0.030118L963.764706-0.030118C997.014588-0.030118 1024 26.955294 1024 60.205176L1024 361.381647C1024 394.661647 997.014588 421.616941 963.764706 421.616941ZM963.764706 60.205176 662.588235 60.205176 662.588235 361.381647 963.764706 361.381647 963.764706 60.205176ZM527.058824 421.616941 496.941176 421.616941C488.628706 421.616941 481.882353 414.870588 481.882353 406.558118L481.882353 15.028706C481.882353 6.716235 488.628706-0.030118 496.941176-0.030118L527.058824-0.030118C535.371294-0.030118 542.117647 6.716235 542.117647 15.028706L542.117647 406.558118C542.117647 414.870588 535.371294 421.616941 527.058824 421.616941ZM361.411765 421.616941 60.235294 421.616941C26.955294 421.616941 0 394.661647 0 361.381647L0 60.205176C0 26.955294 26.955294-0.030118 60.235294-0.030118L361.411765-0.030118C394.661647-0.030118 421.647059 26.955294 421.647059 60.205176L421.647059 361.381647C421.647059 394.661647 394.661647 421.616941 361.411765 421.616941ZM361.411765 60.205176 60.235294 60.205176 60.235294 361.381647 361.411765 361.381647 361.411765 60.205176ZM60.235294 602.352941 361.411765 602.352941C394.661647 602.352941 421.647059 629.308235 421.647059 662.588235L421.647059 963.764706C421.647059 997.014588 394.661647 1024 361.411765 1024L60.235294 1024C26.955294 1024 0 997.014588 0 963.764706L0 662.588235C0 629.308235 26.955294 602.352941 60.235294 602.352941ZM60.235294 963.734588 361.411765 963.734588 361.411765 662.558118 60.235294 662.558118 60.235294 963.734588ZM496.941176 602.352941 527.058824 602.352941C535.371294 602.352941 542.117647 609.099294 542.117647 617.411765L542.117647 918.558118C542.117647 926.900706 535.371294 933.616941 527.058824 933.616941L496.941176 933.616941C488.628706 933.616941 481.882353 926.900706 481.882353 918.558118L481.882353 617.411765C481.882353 609.099294 488.628706 602.352941 496.941176 602.352941ZM677.647059 722.823529 707.764706 722.823529C716.077176 722.823529 722.823529 729.569882 722.823529 737.882353L722.823529 1008.941176C722.823529 1017.253647 716.077176 1024 707.764706 1024L677.647059 1024C669.334588 1024 662.588235 1017.253647 662.588235 1008.941176L662.588235 737.882353C662.588235 729.569882 669.334588 722.823529 677.647059 722.823529ZM828.235294 662.558118 858.352941 662.558118C866.665412 662.558118 873.411765 669.304471 873.411765 677.616941L873.411765 1008.941176C873.411765 1017.253647 866.665412 1024 858.352941 1024L828.235294 1024C819.922824 1024 813.176471 1017.253647 813.176471 1008.941176L813.176471 677.616941C813.176471 669.304471 819.922824 662.558118 828.235294 662.558118Z" p-id="4790"></path></svg>