<?xml version="1.0" encoding="UTF-8"?>
<svg width="57px" height="48px" viewBox="0 0 57 48" version="1.1" xmlns="http://www.w3.org/2000/svg" xmlns:xlink="http://www.w3.org/1999/xlink">
    <!-- Generator: Sketch 49.1 (51147) - http://www.bohemiancoding.com/sketch -->
    <title>6</title>
    <desc>Created with Sketch.</desc>
    <defs>
        <path d="M23.4694173,31.0825486 C23.4694173,23.053574 30.928172,16.5433315 40.1295744,16.5433315 C49.3240228,16.5433315 56.7813867,23.053574 56.7813867,31.0825486 C56.7813867,35.7931214 54.2167879,39.9779793 50.2447194,42.6357604 C50.1946513,42.6691392 50.0917335,42.7358966 50.0917335,42.7358966 L51.6994756,48 L45.6815693,44.797033 C45.6815693,44.797033 45.4938139,44.8554458 45.3978501,44.8818706 C43.7414308,45.3630806 41.9695767,45.6245473 40.1295744,45.6245473 C30.928172,45.6245473 23.4694173,39.1143048 23.4694173,31.0825486 Z M43.5828818,26.0743488 C43.5828818,27.3816823 44.6287486,28.4400661 45.9193927,28.4400661 C47.2142091,28.4400661 48.2600759,27.3816823 48.2600759,26.0743488 C48.2600759,24.7697969 47.2142091,23.7141947 45.9193927,23.7141947 C44.6287486,23.7141947 43.5828818,24.7697969 43.5828818,26.0743488 Z M31.9921189,26.0743488 C31.9921189,27.3816823 33.0379857,28.4400661 34.3300206,28.4400661 C35.6220555,28.4400661 36.669313,27.3816823 36.669313,26.0743488 C36.669313,24.7697969 35.6220555,23.7141947 34.3300206,23.7141947 C33.0379857,23.7141947 31.9921189,24.7697969 31.9921189,26.0743488 Z M1.13686838e-13,17.2136876 C1.13686838e-13,7.70631356 8.8815229,0 19.8408716,0 C29.7654797,0 37.9891635,6.32248718 39.4508736,14.5795497 C39.1741083,14.5670327 38.8987338,14.5600788 38.6164054,14.5600788 C28.6375569,14.5600788 20.5446064,21.5974271 20.5446064,30.275896 C20.5446064,31.6958827 20.7671312,33.074146 21.1732391,34.3814794 C20.7323617,34.4079043 20.2887028,34.4245936 19.8408716,34.4245936 C17.6462203,34.4245936 15.5350158,34.1172312 13.5628893,33.5470113 C13.4502361,33.5136325 13.2249297,33.4454843 13.2249297,33.4454843 L6.0526758,37.2353606 L7.96917104,31.0060557 C7.96917104,31.0060557 7.84956393,30.9267812 7.78697882,30.8878394 C3.05137195,27.7432851 1.13686838e-13,22.787935 1.13686838e-13,17.2136876 Z M23.958972,11.286182 C23.958972,12.8285574 25.2051111,14.0830412 26.7447049,14.0830412 C28.2829079,14.0830412 29.529047,12.8285574 29.529047,11.286182 C29.529047,9.73824356 28.2829079,8.4865413 26.7447049,8.4865413 C25.2051111,8.4865413 23.958972,9.73824356 23.958972,11.286182 Z M10.1513053,11.286182 C10.1513053,12.8285574 11.3974444,14.0830412 12.9370382,14.0830412 C14.476632,14.0830412 15.7241619,12.8285574 15.7241619,11.286182 C15.7241619,9.73824356 14.476632,8.4865413 12.9370382,8.4865413 C11.3974444,8.4865413 10.1513053,9.73824356 10.1513053,11.286182 Z" id="path-1"></path>
    </defs>
    <g id="Page-1" stroke="none" stroke-width="1" fill="none" fill-rule="evenodd">
        <mask id="mask-2" fill="white">
            <use xlink:href="#path-1"></use>
        </mask>
        <use id="6" fill="#000000" xlink:href="#path-1"></use>
    </g>
</svg>