<?xml version="1.0" encoding="UTF-8"?>
<svg width="40px" height="48px" viewBox="0 0 40 48" version="1.1" xmlns="http://www.w3.org/2000/svg" xmlns:xlink="http://www.w3.org/1999/xlink">
    <!-- Generator: Sketch 49.1 (51147) - http://www.bohemiancoding.com/sketch -->
    <title>7</title>
    <desc>Created with Sketch.</desc>
    <defs>
        <path d="M4.8355652,15.3345153 C4.8355652,17.4530997 5.25826045,19.4720761 6.02447541,21.3084379 C4.49715359,22.3721997 2.79871044,24.3822369 1.54722601,26.9401179 C-0.590513715,31.3075431 -0.271257484,35.7196642 1.04535522,36.4386293 C1.71962438,36.8076895 3.4831958,35.6468738 5.21228755,33.4950868 C5.49323304,36.0274272 6.65787977,38.3388424 8.44826872,40.1981907 C5.48812494,41.0946622 3.52278358,42.8620647 3.78585071,44.6588387 C4.11404612,46.9293891 7.85956023,48.3851975 12.1567491,47.9101442 C15.3122777,47.5602394 17.8765438,46.2653361 18.8917786,44.7022576 C19.1561227,44.7150278 19.4179128,44.7367373 19.6848111,44.7367373 C20.1470941,44.7367373 20.6004379,44.7137508 21.0499507,44.6779941 C22.14053,46.16062 24.5541071,47.3942261 27.4721091,47.7760566 C31.6403184,48.3187922 35.2453598,46.9230039 35.5250283,44.6588387 C35.7459536,42.8735579 33.8355243,41.0831689 30.9775425,40.1368935 C32.6581073,38.3682139 33.7742271,36.1972716 34.1126387,33.8207282 C35.6501767,35.9801773 37.2247484,37.3619183 38.0471525,37.1767497 C39.0176914,36.9571014 39.711116,32.3163928 37.9334973,27.871069 C36.8186545,25.0858777 35.1483059,22.7885098 33.6426935,21.6315252 C34.4957462,19.7083257 34.9835697,17.5808022 34.9835697,15.3345153 C34.9835697,6.86400898 28.2344929,0 19.9082904,0 C11.585919,0 4.8355652,6.86400898 4.8355652,15.3345153 Z" id="path-1"></path>
    </defs>
    <g id="Page-1" stroke="none" stroke-width="1" fill="none" fill-rule="evenodd">
        <mask id="mask-2" fill="white">
            <use xlink:href="#path-1"></use>
        </mask>
        <use id="7" fill="#000000" xlink:href="#path-1"></use>
    </g>
</svg>