<?xml version="1.0" encoding="UTF-8"?>
<svg width="57px" height="48px" viewBox="0 0 57 48" version="1.1" xmlns="http://www.w3.org/2000/svg" xmlns:xlink="http://www.w3.org/1999/xlink">
    <!-- Generator: Sketch 49.1 (51147) - http://www.bohemiancoding.com/sketch -->
    <title>8</title>
    <desc>Created with Sketch.</desc>
    <defs>
        <path d="M37.0109888,10.3526767 C37.0109888,9.18867187 37.849885,8.2452764 38.8861687,8.2452764 C43.8542344,8.2452764 47.8963211,12.7895398 47.8963211,18.3773437 C47.8963211,18.6995496 47.8687449,19.0130472 47.8426201,19.3279961 C47.8426201,19.3483154 47.8542311,19.3671833 47.8542311,19.388954 C47.8542311,19.4324953 47.8324605,19.4687797 47.8324605,19.5108697 C47.826655,19.5631193 47.8295577,19.6182716 47.8237522,19.6719726 L47.8034329,19.6676185 C47.6771631,20.6937425 46.9268008,21.4978057 45.9790512,21.4978057 C44.944219,21.4978057 44.1053227,20.5544102 44.1053227,19.388954 C44.1053227,19.3033227 44.1401557,19.227851 44.148864,19.1451225 L44.1053227,19.1364143 C44.1328989,18.8882287 44.1474126,18.635689 44.1474126,18.3773437 C44.1474126,15.1146468 41.7860212,12.4600771 38.8861687,12.4600771 C37.849885,12.4600771 37.0109888,11.5166816 37.0109888,10.3526767 Z M37.5741233,2.28591979 C37.5741233,1.02467262 38.5857335,0 39.836821,0 C48.787467,0 56.0835424,7.30478369 56.1938471,16.3265471 L56.1938471,16.7198705 C56.1836874,17.4876492 56.1096672,18.2525253 55.9964597,19.0115958 C55.9964597,19.1944694 55.9674322,19.3700861 55.9253422,19.5413486 C55.9224395,19.5471541 55.9224395,19.5529596 55.9224395,19.5558624 L55.9195367,19.5558624 C55.6698998,20.5413478 54.7918163,21.2742935 53.7366647,21.2742935 C52.4870286,21.2742935 51.4768697,20.2496209 51.4768697,18.9883737 C51.4768697,18.8983883 51.4913835,18.8142084 51.5015432,18.7285771 L51.4754184,18.7227716 C51.6060424,18.0072424 51.6713543,17.2699426 51.6713543,16.5355455 C51.6713543,9.93903412 46.3622149,4.57183958 39.836821,4.57183958 C38.5857335,4.57183958 37.5741233,3.54861834 37.5741233,2.28591979 Z M21.2112917,26.0043333 C21.7308849,25.9433754 22.2258047,25.9128965 22.6989538,25.9128965 C30.566872,25.9128965 31.8789174,33.9883617 29.2432156,37.4223212 C26.450765,41.060925 20.9253703,42.8359598 15.5596272,39.904177 C13.0081053,38.5065003 13.1009934,35.7590424 13.1009934,35.7590424 C13.1009934,35.7590424 12.0414877,27.0885124 21.2112917,26.0043333 Z M22.7047593,33.3787831 C22.8745705,33.67051 23.1706515,33.8170991 23.4972115,33.8170991 C23.7613622,33.8170991 24.0472836,33.7227596 24.3056288,33.528275 C24.8702148,33.0739938 25.0908242,32.2873471 24.7831321,31.7648511 C24.4783428,31.2525148 23.7715219,31.1059257 23.0922771,31.6153592 C22.5044692,32.044967 22.3840048,32.8649954 22.7047593,33.3787831 Z M15.8063614,35.9332077 C15.8063614,37.2539614 16.9558525,38.2002596 18.4580283,38.2002596 C18.6017147,38.2002596 18.7497552,38.1915514 18.8992471,38.1741348 C20.6031645,37.9781988 21.9935843,36.6472855 21.9935843,35.2075189 C21.9935843,33.7619468 20.7120178,32.6182612 18.7439497,32.8083917 C17.0327755,32.9883625 15.8063614,34.4948925 15.8063614,35.9332077 Z M18.5988119,9.65891823 C20.2780559,9.07401304 21.6379967,8.82582746 22.7395924,8.82582746 C26.7700681,8.82582746 27.3332026,12.1335171 27.3332026,14.2742991 C26.9166572,16.5906979 26.1372674,17.9520901 29.0734044,17.0159515 C29.0734044,17.0159515 36.7599004,13.3599312 39.9253551,16.6037603 C42.476877,19.2220455 40.3462546,22.8258162 40.3462546,22.8258162 C40.3462546,22.8258162 39.2882003,24.0246542 41.4667181,24.4586161 C43.6524929,24.9070918 50.5204119,28.1697887 46.7381217,36.4150651 C42.9601857,44.6472791 30.4957545,48.6545328 21.2591872,47.9128788 C12.4798038,47.2046065 1.19243984,44.2147686 0.0269835952,33.320728 C0.0269835952,33.320728 -0.589851904,28.3903981 4.07487585,22.0043365 C4.07487585,22.0043365 10.7845947,12.3991192 18.5988119,9.65891823 Z M5.36079644,34.2946024 C5.36079644,40.2960489 12.1430842,44.8693399 20.7599133,44.8693399 C21.1503338,44.8693399 21.5451086,44.8606316 21.942786,44.8417637 C31.1183955,44.4136073 38.5436435,38.5239168 38.5436435,32.2510627 C38.5436435,25.9854654 31.1183955,22.1088357 21.942786,22.5427976 C12.7729821,22.9738567 5.36079644,28.0130399 5.36079644,34.2946024 Z" id="path-1"></path>
    </defs>
    <g id="Page-1" stroke="none" stroke-width="1" fill="none" fill-rule="evenodd">
        <mask id="mask-2" fill="white">
            <use xlink:href="#path-1"></use>
        </mask>
        <use id="8" fill="#000000" xlink:href="#path-1"></use>
    </g>
</svg>