<?xml version="1.0" encoding="UTF-8"?>
<svg width="53px" height="48px" viewBox="0 0 53 48" version="1.1" xmlns="http://www.w3.org/2000/svg" xmlns:xlink="http://www.w3.org/1999/xlink">
    <!-- Generator: Sketch 49.1 (51147) - http://www.bohemiancoding.com/sketch -->
    <title>9</title>
    <desc>Created with Sketch.</desc>
    <defs></defs>
    <g id="Page-1" stroke="none" stroke-width="1" fill="none" fill-rule="evenodd">
        <path d="M26.3307628,3.14645461 C24.6430969,3.14645461 23.0771122,4.055666 22.2385697,5.52153744 L3.76682803,37.7813121 C3.35681515,38.4943671 3.14255035,39.3081511 3.14255035,40.1325381 C3.14255035,42.7355865 5.25610063,44.8535454 7.85373064,44.8535454 L44.7945688,44.8535454 C45.6145945,44.8535454 46.4266846,44.6361829 47.1409006,44.2279655 C48.2307413,43.5997349 49.0137336,42.5818423 49.3417439,41.3651425 C49.6723995,40.1484427 49.5083943,38.8760769 48.8814714,37.7813121 L30.4097297,5.52153744 C29.9970716,4.79522863 29.3939558,4.19085487 28.6691589,3.77203446 C27.9549429,3.3638171 27.1481433,3.14645461 26.3307628,3.14645461 M44.7945688,48 L7.85373064,48 C3.52346555,48 0,44.4718357 0,40.1325381 C0,38.7594433 0.362398484,37.4049039 1.0422263,36.2147117 L19.5113227,3.95493704 C20.910657,1.51358516 23.5215133,0 26.3307628,0 C27.6957089,0 29.0447836,0.360503645 30.2324983,1.04440027 C31.441375,1.7415507 32.4465679,2.74618953 33.1369767,3.95493704 L51.6060731,36.2147117 C52.6509447,38.0384361 52.9234048,40.1590457 52.3758392,42.1895295 C51.8256284,44.2173625 50.5241682,45.9111995 48.70424,46.9582505 C47.51388,47.6394964 46.1621601,48 44.7945688,48 M23.7292766,37.3890517 C23.7292766,38.3961013 24.6502434,39.2121181 25.7839407,39.2121181 C26.917638,39.2121181 27.8360106,38.3961013 27.8360106,37.3890517 C27.8360106,36.3820021 26.917638,35.5659854 25.7839407,35.5659854 C24.6502434,35.5659854 23.7292766,36.3820021 23.7292766,37.3890517 Z M26.3244142,32.1184891 C25.4567741,32.1184891 24.7531391,31.4133863 24.7531391,30.5439364 L24.7531391,12.6009278 C24.7531391,11.7314778 25.4567741,11.0263751 26.3244142,11.0263751 C27.1920544,11.0263751 27.8956894,11.7314778 27.8956894,12.6009278 L27.8956894,30.5439364 C27.8956894,31.4133863 27.1920544,32.1184891 26.3244142,32.1184891" id="9" fill="#000000"></path>
    </g>
</svg>